<svg height="518.60486mm" viewBox="0 0 326.71573 518.60486" width="326.71573mm" xmlns="http://www.w3.org/2000/svg" xmlns:xlink="http://www.w3.org/1999/xlink"><marker id="a" orient="auto" overflow="visible" refX="0" refY="0"><path d="m0 0 5-5-17.5 5 17.5 5z" fill-rule="evenodd" stroke="#000" stroke-width="1pt" transform="matrix(-.8 0 0 -.8 -10 0)"/></marker><marker id="b" orient="auto" overflow="visible" refX="0" refY="0"><path d="m0 0 5-5-17.5 5 17.5 5z" fill-rule="evenodd" stroke="#000" stroke-width="1pt" transform="matrix(.8 0 0 .8 10 0)"/></marker><marker id="c" orient="auto" overflow="visible" refX="0" refY="0"><path d="m0 0 5-5-17.5 5 17.5 5z" fill-rule="evenodd" stroke="#000" stroke-width="1pt" transform="matrix(-.8 0 0 -.8 -10 0)"/></marker><marker id="d" orient="auto" overflow="visible" refX="0" refY="0"><path d="m0 0 5-5-17.5 5 17.5 5z" fill-rule="evenodd" stroke="#000" stroke-width="1pt" transform="matrix(-.4 0 0 -.4 -4 0)"/></marker><marker id="e" orient="auto" overflow="visible" refX="0" refY="0"><path d="m0 0 5-5-17.5 5 17.5 5z" fill-rule="evenodd" stroke="#000" stroke-width="1pt" transform="matrix(.8 0 0 .8 10 0)"/></marker><marker id="f" orient="auto" overflow="visible" refX="0" refY="0"><path d="m0 0 5-5-17.5 5 17.5 5z" fill-rule="evenodd" stroke="#000" stroke-width="1pt" transform="matrix(-.8 0 0 -.8 -10 0)"/></marker><marker id="g" orient="auto" overflow="visible" refX="0" refY="0"><path d="m0 0 5-5-17.5 5 17.5 5z" fill-rule="evenodd" stroke="#000" stroke-width="1pt" transform="matrix(-.8 0 0 -.8 -10 0)"/></marker><linearGradient id="h" gradientUnits="userSpaceOnUse" x1="177.724441" x2="217.276513" y1="-132.604642" y2="-132.604642"><stop offset="0" stop-color="#191919"/><stop offset="1" stop-color="#fefefe"/></linearGradient><linearGradient id="i" gradientUnits="userSpaceOnUse" x1="177.693275" x2="217.282503" y1="-150.869515" y2="-150.869515"><stop offset="0" stop-color="#fefefe"/><stop offset="1" stop-color="#191919"/></linearGradient><clipPath id="j"><path d="m0 566h800v-566h-800z"/></clipPath><clipPath id="k"><path d="m372.625 489.957h229.244v-413.917h-229.244z"/></clipPath><marker id="l" orient="auto" overflow="visible" refX="0" refY="0"><path d="m0 0 5-5-17.5 5 17.5 5z" fill-rule="evenodd" stroke="#000" stroke-width="1pt" transform="matrix(.8 0 0 .8 10 0)"/></marker><marker id="m" orient="auto" overflow="visible" refX="0" refY="0"><path d="m0 0 5-5-17.5 5 17.5 5z" fill-rule="evenodd" stroke="#000" stroke-width="1pt" transform="matrix(-.8 0 0 -.8 -10 0)"/></marker><marker id="n" orient="auto" overflow="visible" refX="0" refY="0"><path d="m0 0 5-5-17.5 5 17.5 5z" fill-rule="evenodd" stroke="#000" stroke-width="1pt" transform="matrix(-.8 0 0 -.8 -10 0)"/></marker><clipPath id="o"><path d="m0 595.28h841.89v-595.28h-841.89z"/></clipPath><marker id="p" orient="auto" overflow="visible" refX="0" refY="0"><path d="m0 0 5-5-17.5 5 17.5 5z" fill-rule="evenodd" stroke="#000" stroke-width="1pt" transform="matrix(-.8 0 0 -.8 -10 0)"/></marker><g transform="translate(27.002056 239.34631)"><g transform="translate(23.227718 -41.694046)"><g transform="matrix(.80818459 0 0 .80818459 33.465594 -272.32591)"><path d="m98.084821 96.105653v68.791667l-43.653945 25.20362" fill="none" marker-end="url(#f)" marker-start="url(#e)" stroke="#000" stroke-width=".846667"/><path d="m98.084819 164.89732h66.145831" fill="none" marker-end="url(#g)" stroke="#000" stroke-width=".846667"/><g font-family="sans-serif" font-size="10.583333" letter-spacing="0" stroke-width=".264583" word-spacing="0"><text x="51.59375" y="183.60713"><tspan stroke-width=".264583" x="51.59375" y="183.60713">x</tspan></text><text x="158.939" y="157.90477"><tspan stroke-width=".264583" x="158.939" y="157.90477">y</tspan></text><text x="102.62054" y="98.184525"><tspan stroke-width=".264583" x="102.62054" y="98.184525">z</tspan></text></g></g><g stroke="#000" transform="translate(-84.666666 -24.190476)"><path d="m177.94745-150.46812 19.45545 35.60016 19.64949-35.61584z" fill="url(#h)" stroke-width=".264583"/><ellipse cx="197.4879" cy="-150.86951" fill="url(#i)" rx="19.371281" ry="2.929315" stroke-width=".846667"/></g><path d="m130.34868-182.46285-39.120536 17.76488" fill="none" marker-end="url(#d)" stroke="#000" stroke-width=".864306"/><text font-family="sans-serif" font-size="10.583333" letter-spacing="0" stroke-width=".264583" word-spacing="0" x="58.344212" y="-156.76045"><tspan font-size="7.055556" stroke-width=".264583" x="58.344212" y="-156.76045">polarization</tspan><tspan font-size="7.055556" stroke-width=".264583" x="58.344212" y="-149.67044">direction</tspan></text></g><g transform="translate(-71.053713 -29.021754)"><path d="m198.67978-75.544142v79.408865l-35.28044 20.369177" fill="none" marker-end="url(#a)" marker-start="url(#b)" stroke="#000" stroke-width=".684"/><path d="m198.67978 3.864723h53.45804" fill="none" marker-end="url(#g)" stroke="#000" stroke-width=".684263"/><text font-family="sans-serif" font-size="8.553287" letter-spacing="0" stroke-width=".213832" word-spacing="0" x="161.10641" y="18.985704"><tspan stroke-width=".213832" x="161.10641" y="18.985704">x</tspan></text><text font-family="sans-serif" font-size="8.553287" letter-spacing="0" stroke-width=".213832" word-spacing="0" x="247.86119" y="-1.786548"><tspan stroke-width=".213832" x="247.86119" y="-1.786548">y</tspan></text><text font-family="sans-serif" font-size="8.553287" letter-spacing="0" stroke-width=".213832" word-spacing="0" x="202.34547" y="-75.980797"><tspan stroke-width=".213832" x="202.34547" y="-75.980797">z</tspan></text><g stroke="#000"><g transform="matrix(.32082252 -.07918013 .24112431 .97698895 146.01189 131.34409)"><path d="m177.94745-150.46812 19.45545 35.60016 19.64949-35.61584z" fill="url(#h)" stroke-width=".264583"/><ellipse cx="197.4879" cy="-150.86951" fill="url(#i)" rx="19.371281" ry="2.929315" stroke-width=".846667"/></g><g transform="matrix(.33044906 0 0 1.0063043 133.44818 119.45685)"><path d="m177.94745-150.46812 19.45545 35.60016 19.64949-35.61584z" fill="url(#h)" stroke-width=".264583"/><ellipse cx="197.4879" cy="-150.86951" fill="url(#i)" rx="19.371281" ry="2.929315" stroke-width=".846667"/></g><g transform="matrix(-.32082252 -.07918013 -.24112431 .97698895 251.40382 131.34409)"><path d="m177.94745-150.46812 19.45545 35.60016 19.64949-35.61584z" fill="url(#h)" stroke-width=".264583"/><ellipse cx="197.4879" cy="-150.86951" fill="url(#i)" rx="19.371281" ry="2.929315" stroke-width=".846667"/></g><g transform="matrix(.32082252 -.07918013 .24112431 .97698895 141.24936 140.22658)"><path d="m177.94745-150.46812 19.45545 35.60016 19.64949-35.61584z" fill="url(#h)" stroke-width=".264583"/><ellipse cx="197.4879" cy="-150.86951" fill="url(#i)" rx="19.371281" ry="2.929315" stroke-width=".846667"/></g><g transform="matrix(.33044906 0 0 1.0063043 133.44818 128.33934)"><path d="m177.94745-150.46812 19.45545 35.60016 19.64949-35.61584z" fill="url(#h)" stroke-width=".264583"/><ellipse cx="197.4879" cy="-150.86951" fill="url(#i)" rx="19.371281" ry="2.929315" stroke-width=".846667"/></g><g transform="matrix(-.32082252 -.07918013 -.24112431 .97698895 256.16635 140.22658)"><path d="m177.94745-150.46812 19.45545 35.60016 19.64949-35.61584z" fill="url(#h)" stroke-width=".264583"/><ellipse cx="197.4879" cy="-150.86951" fill="url(#i)" rx="19.371281" ry="2.929315" stroke-width=".846667"/></g></g><text font-family="sans-serif" font-size="10.583333" letter-spacing="0" stroke-width=".264583" word-spacing="0" x="201.72978" y="-59.045002"><tspan font-size="7.055556" stroke-width=".264583" x="201.72978" y="-59.045002">boresight</tspan><tspan font-size="7.055556" stroke-width=".264583" x="201.72978" y="-51.954994">direction</tspan></text></g><g transform="translate(-99.284956 85.526248)"><g transform="matrix(.80818458 0 0 .80818458 264.94155 35.733589)"><path d="m98.084821 96.105653v68.791667l-43.653945 25.20362" fill="none" marker-end="url(#m)" marker-start="url(#l)" stroke="#000" stroke-width=".846667"/><path d="m98.084819 164.89732h66.145831" fill="none" marker-end="url(#n)" stroke="#000" stroke-width=".846667"/><g font-family="sans-serif" font-size="10.583333" letter-spacing="0" stroke-width=".264583" word-spacing="0"><text x="51.59375" y="183.60713"><tspan stroke-width=".264583" x="51.59375" y="183.60713">x</tspan></text><text x="158.939" y="157.90477"><tspan stroke-width=".264583" x="158.939" y="157.90477">y</tspan></text><text x="102.62054" y="98.184525"><tspan stroke-width=".264583" x="102.62054" y="98.184525">z</tspan></text></g></g><path d="m0 0 97.885-32.349 20.929 100.946 68.598-76.956 68.596 76.957 20.928-100.947 97.887 32.349-32.35-97.886 100.947-20.928-76.957-68.596 76.957-68.599-100.946-20.928 32.349-97.885-97.887 32.346-20.928-100.945-68.598 76.958-68.596-76.957-20.929 100.945-97.885-32.348 32.348 97.886-100.946 20.928 76.957 68.597-76.957 68.597 100.946 20.928z" fill="#fcee21" transform="matrix(.13057677573 0 0 -.13057677573 81.24020598956 100.89125674914)"/><g clip-path="url(#o)" transform="matrix(.13057677573 0 0 -.13057677573 50.74612764361 164.22775673098)"><path d="m0 0c70.773-70.773 70.773-185.518.001-256.291-70.773-70.773-185.519-70.773-256.292 0s-70.773 185.519 0 256.292 185.519 70.772 256.291-.001" fill="#f15a24" transform="translate(549.0898 425.7856)"/><path d="m0 0c62.711-62.71 62.711-164.384 0-227.095s-164.384-62.71-227.095 0c-62.711 62.711-62.711 164.384 0 227.095 62.71 62.71 164.384 62.711 227.095 0" fill="#fcee21" transform="translate(534.4922 411.188)"/><path d="m0 0c56.469-56.469 56.469-148.021.001-204.49-56.47-56.468-148.022-56.468-204.491 0-56.469 56.469-56.469 148.022 0 204.491 56.469 56.468 148.021 56.468 204.49-.001" fill="#fbb03b" transform="translate(523.1895 399.8853)"/></g><path d="m122.20221 193.60181c146.5965-24.37874 218.56473-63.16926 223.38392-66.14583" fill="none" marker-end="url(#c)" stroke="#000" stroke-width=".264583"/><text font-family="sans-serif" font-size="10.583333" letter-spacing="0" stroke-width=".264583" transform="matrix(.97907232 -.20351264 .20351264 .97907232 0 0)" word-spacing="0" x="88.859367" y="203.49976"><tspan font-size="7.055556" stroke-width=".264583" x="88.859367" y="203.49976">Earth's orbit on the</tspan><tspan font-size="7.055556" stroke-width=".264583" x="88.859367" y="210.58977">Ecliptic plane</tspan></text><g stroke="#000" transform="matrix(.61004719 .79236509 -.79236509 .61004719 377.013526 136.422353)"><path d="m5.8038688 45.86518-.7658534-61.426193" fill="none" marker-end="url(#p)" stroke-width=".684"/><g stroke-width=".264583"><path d="m15.776267 29.753399-1.186978.189672-2.632033 3.779005 4.626348 2.021724 1.120993-.301698" fill="none"/><path d="m-6.2890711 34.843035 1.3445387-.390006 4.80478952 1.97412" fill="none"/><path d="m-4.3693636 40.60058 1.4217951-.244415 2.80778504-3.929045" fill="none"/><path d="m-39.316318 50.855044-1.501977-10.129412 33.8273653-7.392894 3.2819411 9.136579z" fill="#000080"/><path d="m18.170456 37.14136-2.902971-8.983786 27.10848-6.249842 3.620877 8.62106z" fill="#000080"/><path d="m2.6114346 42.244605 10.5175124-2.767199.171457-8.892616-10.8864661 2.510092z" fill="#ff0"/></g><path d="m2.6114346 42.244605-3.5514649-5.701238-.1798521-9.691338 3.5338203 6.242853z" fill="#ff0" stroke-linejoin="round" stroke-width=".265"/><path d="m13.300404 30.58479-3.6845132-5.812457-10.7357732 2.079696 3.5338203 6.242853z" fill="#ff0" stroke-width=".264583"/><path d="m.04569392 24.972825-.01113553 2.782841 1.48972781 2.055314 4.1089398 1.249433 4.537794-1.10453 1.79586-2.376833.085438-3.766431-11.89903116-.664625z" fill="#ff0" stroke-width=".264583"/><path d="m1.3859266 17.062597-1.22418701.272942-3.23057399 3.399652 2.16023313 3.97214 6.62157747 1.769731 6.6548358-1.565085 2.505567-3.425289-2.552361-3.886275-10.9350906-.537815" fill="#ff0" stroke-width=".264583"/><path d="m1.3989777 14.295502.1209704 8.9741s2.7098918 2.303585 4.4081503 2.301574c1.6982643-.002 4.6186366-2.425438 4.6186366-2.425438l.04764-8.567858z" fill="#ff0" stroke-width=".264583"/><ellipse cx="-14.815884" cy="4.979589" rx="3.49806" ry="4.376344" stroke-linecap="round" stroke-width=".264999" transform="matrix(-.0677134 -.99770481 .99770481 -.0677134 0 0)"/></g><g clip-path="url(#j)" transform="matrix(.1320031 0 0 -.1320031 219.77936 196.14739)"><g fill-rule="evenodd"><path d="m0 0c-4.26-114.223-98.06-203.45-209.506-199.294-111.451 4.157-198.345 100.12-194.084 214.344 4.261 114.225 98.063 203.453 209.509 199.296 111.452-4.155 198.345-100.124 194.081-214.346" fill="#2197bd" transform="translate(601.7187 275.4736)"/><path d="m0 0c-.559-.426-.733-.9-.586-1.589.163-.754.21-1.532.326-2.461-2.293-.001-4.385.001-6.529.001-.157.933-.319 1.796-.452 2.662-.13.872-.234 1.747-.349 2.623-.051.415.018.769.31 1.126.622.758 1.184 1.574 1.78 2.357.095.128.229.282.373.316 1.376.357 2.757.69 4.208 1.05.784-1.611 1.544-3.155 2.329-4.773-.478-.45-.916-.922-1.41-1.312m-20.835-20.488c.086-.503.176-1.03.275-1.61.838-.019 1.639-.04 2.385-.056.222-1.318.497-2.547.617-3.79.094-.914.279-1.708.934-2.404.698-.742 1.305-1.569 1.945-2.362.167-.206.312-.429.528-.736-.337-.096-.582-.188-.825-.234-3.666-.627-7.325-1.237-10.988-1.886-.615-.108-1.041.009-1.429.495-.269.346-.651.608-.92.959-1.002 1.299-2.344 2.023-3.935 2.333-.424.082-.834.252-1.368.416 1.875 2.962 3.908 5.72 4.878 9.11-.175.151-.368.336-.575.493-.465.345-.912.726-1.413 1.007-2.63 1.466-4.227 3.896-5.903 6.251-.329.462-.426.95-.461 1.519-.085 1.393-.271 2.778-.443 4.165-.071.573-.187 1.138-.3 1.791.651.249 1.201.513 1.777.66.567.147.954.47 1.32.893 1.221 1.42 2.47 2.816 3.698 4.238.317.38.663.528 1.174.605 1.071.155 2.113.498 3.162.775.521.138 1.042.297 1.624.463 1.248-2.144 2.431-4.163 3.713-6.348-.489-.084-.831-.161-1.178-.198-1.054-.107-2.102-.221-3.152-.29-.53-.037-.812-.288-.914-.789-.02-.1-.077-.198-.068-.295.057-1.385-.566-2.568-1.116-3.771-.073-.149-.107-.314-.185-.554.44-.363.849-.775 1.334-1.068.74-.449 1.049-1.086 1.175-1.911.122-.757.365-1.495.58-2.319 1.874.435 3.622.837 5.446 1.26 1.211-1.279 2.423-2.555 3.738-3.947-1.769-.987-3.428-1.914-5.13-2.865m-32.632.599c-.682-.153-.918-.58-1.012-1.22-.09-.67-.263-1.331-.403-2.016-.226-.063-.415-.14-.61-.168-1.752-.234-3.505-.478-5.264-.676-.344-.039-.74.054-1.072.195-1.035.429-2.059.895-3.075 1.379-.434.208-.817.255-1.246-.009-1.255-.79-2.587-.794-4.008-.506-1.633.335-3.3.489-4.941.767-.836.143-1.608.032-2.401-.237-2.834-.964-5.678-1.901-8.517-2.844-.256-.087-.525-.133-.842-.212-.38.528-.749 1.047-1.188 1.659-.742-.233-1.507-.473-2.351-.741-.08.284-.177.525-.213.776-.145 1.009-.359 2.02-.379 3.036-.011.642.281 1.286.423 1.882.282.062.425.14.546.113 1.373-.304 1.923.738 2.559 1.593.139.186.196.528.133.754-.567 1.876-.151 3.706.196 5.547.07.359.144.717.235 1.154.772-.247 1.468-.514 2.187-.691.481-.117.998-.178 1.487-.137 1.343.108 2.677.281 4.116.262-.738-.822-1.476-1.644-2.292-2.555.686-.324 1.29-.612 1.898-.895.557-.259 1.151-.455 1.662-.78.692-.439 1.352-.337 2.049-.099.807.275 1.608.558 2.422.8.462.137.765.377.934.843.291.797.623 1.575.981 2.469-1.171.366-2.26.705-3.574 1.116 3.673 2.595 7.101 5.23 10.939 7.663-.07-.686-.047-1.206-.196-1.671-.1-.315-.382-.661-.675-.814-.887-.46-1.333-1.086-1.142-2.117.057-.293-.007-.61-.002-.914.029-1.573-.034-3.127-.866-4.538-.08-.136-.09-.315-.159-.578.362-.008.661-.028.951-.01 2.068.119 4.142.261 6.209.362.269.014.626-.092.81-.281 2.243-2.324 4.47-4.672 6.698-7.019.016-.019.014-.063.044-.189-.335-.151-.677-.368-1.051-.453m165.575-36.593c.779.667 1.416 1.334 2.168 1.818.422.27 1.033.281 1.566.335 1.22.124 2.443.23 3.664.306 1.652.1 3.223.528 4.756 1.117.543.21.934.14 1.389-.216 2.703-2.082 5.423-4.143 8.153-6.183.491-.367.782-.822.981-1.376.831-2.34 1.681-4.677 2.488-7.026.205-.608.528-.941 1.183-1.06 1.378-.24 2.73-.575 4.101-.863.222-.05.453-.064.758-.102.324 2.364.629 4.68.964 7.157.838-.743 1.559-1.36 2.248-2.004.121-.12.164-.353.19-.541.021-.124-.026-.271-.074-.397-.575-1.467-.247-2.78.424-4.172 1.315-2.728 2.498-5.518 3.616-8.324.58-1.447.917-2.991 1.35-4.492.63-2.159 1.245-4.313 1.862-6.473.594-2.059 1.187-4.116 1.744-6.187.226-.845.536-1.56 1.245-2.144 1.483-1.209 2.877-2.513 4.331-3.753.466-.394.729-.844.866-1.441.386-1.66.824-3.304 1.272-4.946.065-.244.218-.509.412-.666 3.099-2.511 6.209-5.006 9.328-7.498.07-.057.18-.061.406-.132-.42.93-.748 1.779-1.171 2.583-1.029 1.947-1.655 4.013-2.078 6.17-.328 1.702-.812 3.379-1.191 5.075-.092.384-.313.579-.615.758-.962.576-1.919 1.176-2.891 1.731-.581.326-1.07.722-1.395 1.311-.096.178-.233.336-.344.508-1.667 2.625-3.489 5.128-5.673 7.349-.358.357-.51.745-.517 1.264-.045 2.147-.145 4.29-.208 6.435-.016.666-.181 1.258-.543 1.829-.849 1.315-1.65 2.665-2.513 4.08.762.657 1.494 1.296 2.317 2.011.616-1.039 1.217-1.98 1.744-2.962.367-.68.848-1.206 1.486-1.643 1.741-1.192 3.459-2.43 5.191-3.647.216-.151.448-.289.738-.477.131.285.265.511.347.754 1.316 3.548 2.607 7.106 3.936 10.647.204.565.232 1.026-.175 1.505-1.551 1.839-2.221 4.034-2.378 6.389-.108 1.545-.795 2.711-1.846 3.828-3.365 3.576-6.631 7.242-9.965 10.843-.521.558-.656 1.075-.571 1.824.257 2.266.552 4.539.569 6.815.01 1.327.403 2.377 1.121 3.397 1.763 2.518 3.754 4.845 6.005 7.054-.353 1.145-.704 2.314-1.074 3.476-.884 2.785-1.777 5.57-2.659 8.355-5.571 9.848-11.882 19.148-18.851 27.838-.158.067-.319.139-.483.204-.513.214-.799.485-.933 1.069-.051.223-.116.445-.173.667-29.948 36.438-71.545 61.781-117.709 70.875-.064-.065-.133-.128-.192-.21-.935-1.215-1.911-2.394-2.894-3.621-1.392.271-2.752.528-4.106.797-2.199.436-4.395.873-6.587 1.318-.295.061-.57.181-.852.274-.202-.033-.408-.067-.609-.101-.749-.823-1.528-1.623-2.247-2.473-.56-.669-1.228-.887-2.076-.81-.601.056-1.216.011-1.829-.025-.406-.022-.775-.099-1.052-.496-.876-1.26-1.78-2.496-2.752-3.852 3.109-1.921 6.159-3.804 9.207-5.687-.028-.06-.049-.126-.08-.188-1.331.186-2.663.367-3.997.566-1.35.199-2.691.365-4.021.644-1.08.224-2.047.007-3.051-.356-1.616-.587-3.267-1.093-5.022-1.672.864-2.163 2.087-4.111 2.866-6.329-2.878 1.732-5.75 3.464-8.72 5.259-.071-.356-.146-.601-.161-.851-.139-1.661-.296-3.316-.379-4.981-.023-.549-.248-.817-.707-.959-.746-.226-1.503-.45-2.252-.652-1.645-.441-3.292-.856-4.931-1.304-1.599-.437-3.204-.903-4.799-1.358-.75-.211-1.515-.389-2.254-.64-1.693-.574-3.388-1.166-5.067-1.792-1.748-.649-3.474-1.352-5.21-2.023-.519-.198-1.023-.219-1.58.012-1.666.69-3.355 1.319-5.085 1.993-1.243-1.295-2.471-2.562-3.732-3.876-.767.363-1.508.704-2.24 1.056-3.713 1.781-7.44 3.549-11.149 5.362-.703.345-1.328.334-2.046.097-1.387-.46-2.796-.854-4.194-1.271-1.434-.428-2.864-.854-4.295-1.277-.489-.144-.979-.296-1.472-.413-2.411-.575-4.51-1.853-6.701-2.919-5.607-2.729-11.208-5.475-16.798-8.24-.401-.2-.803-.527-1.05-.897-1.059-1.587-2.07-3.206-3.085-4.825-.316-.505-.709-.876-1.247-1.16-2.941-1.541-5.859-3.134-8.81-4.66-.69-.357-1.089-.812-1.344-1.533-.619-1.771-1.306-3.513-1.965-5.268-.057-.154-.096-.315-.197-.66.862.337 1.59.62 2.315.902 1.482.582 2.961 1.164 4.445 1.739.182.069.386.149.568.132 1.178-.115 2.353-.257 3.642-.402-1.711-3.499-3.376-6.913-5.046-10.326 6.31 3.676 11.251 8.887 16.538 13.945-1.404.848-2.75 1.662-4.182 2.526.329.266.546.461.783.629 4.464 3.182 8.939 6.347 13.387 9.545.614.438 1.138.582 1.868.263 1.027-.446 2.11-.763 3.168-1.145.243-.086.475-.203.867-.376-1.875-.98-3.772-1.557-5.36-2.747-1.549-1.162-3.18-2.205-4.898-3.384 1.022-.564 1.87-1.172 2.815-1.502.63-.219 1.404-.082 2.104-.029 1.254.095 2.5.273 3.755.368.467.035.955-.019 1.412-.115.987-.202 1.965-.459 2.973-.88-.258-.11-.515-.235-.779-.326-3.582-1.21-7.162-2.427-10.873-3.187-.589-.123-1.048-.376-1.349-.961-.512-.994-1.112-1.943-1.683-2.931.853-.772 1.632-1.474 2.483-2.239-.268-.197-.463-.374-.681-.492-2.045-1.087-4.085-2.175-6.141-3.231-.376-.192-.829-.292-1.254-.329-.848-.071-1.7-.097-2.552-.081-.468.01-.756-.152-1.008-.531-.613-.902-1.279-1.77-1.884-2.677-.29-.433-.635-.673-1.159-.714-2.697-.206-5.125-1.247-7.517-2.418-1.126-.552-2.279-1.045-3.508-1.604-.667.903-1.111 1.887-1.584 2.848-.086.178.091.516.197.759.488 1.124 1 2.24 1.494 3.363.129.293.23.6.21.998-1-.797-2.001-1.593-2.992-2.397-2.141-1.74-4.303-3.456-6.406-5.24-1.314-1.114-2.786-1.968-4.307-2.698-2.782-1.333-5.171-3.112-7.083-5.537-.416-.53-.921-.989-1.472-1.437.311 1.611.176 3.343 1.485 4.623.337.33.519.702.323 1.188-.589 1.434-.493 2.937-.432 4.435.027.643-.031 1.306.092 1.935.153.775-.183 1.15-.835 1.392-.156.058-.303.143-.622.289.564.354.991.733 1.492.915 1.235.458 1.695 1.252 1.498 2.566-.124.844-.187 1.646-.68 2.405-.425.657-.851 1.103-1.672 1.072-.334-.011-.668.069-1.054.115-.049-.175-.149-.337-.127-.482.217-1.212-.342-2.266-.689-3.355-.133-.422-.474-.826-.818-1.124-1.145-.984-1.884-2.211-2.389-3.724.661-.062 1.274-.121 1.907-.179-.019-.185.003-.307-.046-.373-.805-1.124-1.112-2.402-1.054-3.752.026-.688-.284-.979-.878-1.158-.941-.289-1.862-.662-2.813-.921-1.446-.395-2.437-1.411-3.575-2.426.815-.486 1.568-.936 2.5-1.489-.974-.392-1.796-.731-2.626-1.051-.729-.278-1.488-.497-2.192-.829-.452-.209-.845-.554-1.238-.873-.494-.407-.958-.847-1.624-1.442 1.926-.198 3.546-1.029 5.342-.235 1.046.462 2.2.703 3.308 1.014.52.142.982.159 1.535-.175.886-.532 1.953-.578 2.977-.495.387.032.758.303 1.134.464.041-.065.08-.13.122-.197-.544-.44-1.084-.886-1.631-1.324-.611-.495-1.256-.948-1.826-1.485-.481-.45-.967-.514-1.584-.372-.992.234-2.002.408-3.013.559-.303.046-.702.03-.946-.129-1.95-1.301-3.88-2.643-5.81-3.977-.052-.034-.075-.107-.156-.229.523-.717 1.046-1.469 1.611-2.186.336-.427.384-.787.122-1.296-.926-1.782-1.794-3.596-2.691-5.395-.139-.269-.3-.543-.509-.762-1.749-1.862-3.509-3.709-5.301-5.594-2.08.544-4.147 1.083-6.306 1.647-.691-1.154-1.385-2.311-2.074-3.477-2.846-4.811-5.679-9.63-8.534-14.438-.898-1.52-.916-1.505.013-3.058.962-1.601 1.916-3.209 2.88-4.826.953.161 1.863.276 2.75.473 1.697.378 3.386.778 5.07 1.215.748.195 1.491.452 2.197.769 1.119.499 2.192 1.102 3.306 1.608.565.255.916.638 1.181 1.189 1.757 3.656 3.549 7.297 5.304 10.957.25.518.578.884 1.08 1.157 3.887 2.114 7.77 4.238 11.644 6.377.45.25.833.306 1.335.115 2.26-.859 4.549-1.655 6.809-2.516.423-.161.839-.46 1.143-.798 2.219-2.493 4.421-5.006 6.601-7.537.322-.376.546-.862.728-1.329.581-1.516 1.12-3.047 1.746-4.767.605.689 1.158 1.231 1.605 1.852.719.994 1.595 1.612 2.869 1.642.605.013 1.206.187 1.819.29-.003.168.03.284-.011.355-.85 1.436-1.627 2.925-2.585 4.288-1.939 2.762-3.962 5.464-5.982 8.17-.462.617-1.025 1.18-1.61 1.69-1.019.892-2.091 1.722-3.142 2.579.018.071.035.144.052.216 1.664-.031 3.332-.061 5.064-.089.21.896.397 1.715.616 2.624.216-.146.421-.238.577-.386 2.901-2.737 5.803-5.475 8.681-8.236.332-.314.612-.734.793-1.158 1.103-2.635 2.163-5.286 3.258-7.921.126-.301.329-.614.586-.8 1.82-1.321 3.666-2.611 5.506-3.908.049-.033.128-.029.305-.064-.013.379-.018.735-.054 1.089-.195 2.001-.375 4.003-.615 6-.073.59.084 1.045.39 1.522.863 1.352 1.709 2.716 2.524 4.093.237.407.666.791.389 1.386-.05.111.137.362.257.52.807 1.056 1.636 2.098 2.426 3.166.286.382.657.457 1.075.458 1.559-.011 3.123-.031 4.684-.035.42-.004.692-.149.865-.563.84-2.006 1.798-3.969 2.537-6.014.619-1.724.999-3.536 1.481-5.307.387-1.413.736-2.835 1.168-4.232.095-.303.442-.591.745-.754 1.081-.578 2.182-1.126 3.295-1.637 2.521-1.155 4.82-2.686 7.169-4.144.314-.195.632-.385 1.073-.651.779.962 1.571 1.884 2.291 2.861.999 1.352 3.181 1.584 4.328.418.441-.451.588-.884.303-1.543-2.164-5.002-4.3-10.02-6.416-15.044-.267-.636-.63-.926-1.316-1.07-1.898-.394-3.779-.881-5.653-1.364-.536-.141-.98-.067-1.464.174-1.496.738-3.015 1.438-4.528 2.151-.208.098-.433.172-.724.283-.82-1.592-1.634-3.16-2.455-4.751-2.447.215-4.849.42-7.246.637-2.097.192-4.193.414-6.29.587-.627.051-1.064.269-1.408.821-.769 1.242-1.603 2.441-2.444 3.701-1.931-1.069-3.797-2.104-5.665-3.133-.683-.38-1.347-.802-2.06-1.118-.652-.288-.866-.758-.954-1.415-.229-1.686-.515-3.361-.782-5.04-.039-.224-.112-.442-.183-.73-1.988.385-3.921.756-5.846 1.132-.736.142-1.465.348-2.206.423-.734.07-1.031.475-1.24 1.118-.565 1.712-1.187 3.407-1.814 5.203-1.038.036-2.084.078-3.127.105-1.634.038-3.268.078-4.899.093-.536.004-.978.159-1.411.48-.976.73-1.986 1.421-3.047 2.178 2.063 3.577 4.098 7.098 6.267 10.853-.605-.105-.955-.163-1.311-.223-3.496-.593-6.993-1.199-10.491-1.769-.522-.082-1.087-.062-1.604.044-1.697.353-3.392.729-5.071 1.181-.762.205-1.337.113-1.985-.355-2.208-1.599-4.472-3.121-6.692-4.701-.513-.364-.983-.474-1.606-.343-2.469.514-4.95.947-7.422 1.454-.577.119-.939-.016-1.34-.428-3.532-3.606-7.073-7.195-10.63-10.776-.361-.363-.539-.751-.563-1.256-.091-1.899-.207-3.803-.302-5.702-.024-.502-.191-.891-.548-1.266-3.35-3.541-6.658-7.119-10.024-10.648-.86-.902-1.529-1.91-2.147-2.966-2.498-4.264-5.008-8.519-7.482-12.793-.23-.393-.344-.889-.387-1.349-.794-8.383-1.569-16.774-2.359-25.157-.032-.36-.17-.711-.263-1.067.046-.269.094-.539.137-.806.322-.735.697-1.452.95-2.209.818-2.445 1.581-4.913 2.375-7.366.801-2.453 1.637-4.894 2.414-7.356.681-2.172 1.426-4.32 1.847-6.576.356-1.937.883-3.845 1.381-5.755.072-.297.335-.577.57-.801 2.501-2.362 5.017-4.711 7.524-7.065 1.86-1.751 3.716-3.509 5.576-5.262.193-.185.4-.357.705-.622 1.583 1.345 3.152 2.683 4.779 4.061 1.973-.928 3.94-1.851 5.946-2.796 4.584 2.957 9.154 5.902 13.795 8.892.831-1.321 1.609-2.555 2.381-3.792 1.281-2.049 2.581-4.092 3.828-6.162.382-.636.845-.953 1.588-1.057 2.728-.385 5.45-.829 8.172-1.253.299-.048.595-.114.937-.177.253-1.821.502-3.612.745-5.394.485-3.582.984-7.156 1.442-10.743.077-.604.298-1.092.648-1.568 3.269-4.444 6.509-8.912 9.801-13.338.762-1.033 1.333-2.109 1.713-3.33 1.215-3.898 2.467-7.781 3.708-11.671.218-.687.542-1.306 1.014-1.863 1.446-1.718 2.845-3.483 4.294-5.199.405-.486.544-.919.395-1.564-.666-2.884-1.206-5.803-1.922-8.678-.327-1.32-.182-2.515.229-3.776.925-2.806 1.792-5.636 2.666-8.464.194-.63.491-1.163.976-1.635 3.117-3.005 6.209-6.035 9.298-9.066.36-.354.689-.756.958-1.183 2.832-4.453 5.688-8.894 8.445-13.397 1.653-2.688 3.658-5.06 5.863-7.298 2.914-2.959 5.749-5.999 8.649-8.974.781-.801.946-1.862 1.347-2.818.356-.84.632-1.716.918-2.588.204-.626.622-.992 1.203-1.289 3.369-1.706 6.729-3.442 10.09-5.185.225-.114.406-.309.609-.468.135.019.275.048.406.068.102 1.59.2 3.179.306 4.833 1.267.054 2.47.123 3.68.167 1.356.054 2.702.09 4.058.137 1.862.065 3.728.121 5.585.187.745.029 1.49.079 2.238.101.548.012.937.248 1.286.678 4.918 6.114 9.854 12.206 14.777 18.31.15.183.289.373.505.65-.21.36-.428.736-.651 1.1-.635 1.052-1.251 2.111-1.932 3.134-.335.508-.37.939-.143 1.506 1.084 2.763 2.097 5.549 3.199 8.306.259.659.134 1.036-.364 1.497-2.768 2.584-5.502 5.193-8.244 7.803-.241.222-.458.47-.778.815 1.719.453 3.28.897 4.861 1.275.542.129.924.351 1.215.821 1.45 2.384 3.412 4.316 5.445 6.192 3.881 3.586 7.705 7.232 11.55 10.852.25.234.481.479.783.774-.168.333-.319.665-.494.984-2.938 5.503-5.861 11.01-8.833 16.497-.807 1.476-1.404 3.015-1.848 4.626-.518 1.875-1.006 3.768-1.665 5.59-.372 1.042-1.022 1.988-1.622 2.931-.93 1.457-.458 1.227-2.253 1.132-1.221-.061-2.445-.164-3.874-.26.307.447.504.75.705 1.038 5.473 7.697 10.965 15.389 16.402 23.112 1.237 1.75 2.302 3.624 3.451 5.435 1.244 1.957 2.452 3.94 3.76 5.851.614.891 1.45 1.618 2.14 2.452.481.576.959 1.166 1.323 1.814 2.624 4.625 5.255 9.246 7.803 13.914 1.683 3.082 3.234 6.235 4.85 9.352.397.77.621 1.568.741 2.427.691 4.927 1.418 9.851 2.13 14.772.053.406.094.811.149 1.246-.415.171-.663-.132-.932-.29-4.518-2.735-9.036-5.482-13.555-8.223-3.638-2.207-7.294-4.396-10.92-6.629-.607-.374-1.146-.446-1.818-.251-1.338.387-2.688.704-4.129 1.075.606 1.748 1.178 3.413 1.794 5.189-1.005.397-1.974.792-2.956 1.166-4.96 1.911-9.922 3.812-14.876 5.727-.573.223-1.121.505-1.65.819-1.351.799-2.677 1.628-4.101 2.505.353 3.09.711 6.193 1.078 9.39-.275.117-.539.255-.82.348-2.351.797-4.709 1.614-7.073 2.373-.588.186-.906.506-1.071 1.08-.731 2.555-1.488 5.099-2.221 7.657-.171.619-.443 1.151-.952 1.517-1.111.796-2.206 1.613-3.37 2.312-.906.54-1.599 1.194-2.137 2.111-1.518 2.586-3.076 5.149-4.703 7.668-.826 1.27-1.106 2.702-1.508 4.1-1.073 3.728-2.099 7.473-3.14 11.214-.025.087-.009.185-.018.543 1.595-2.162 3.059-4.145 4.521-6.124.065.014.136.032.205.045.315 1.813.354 3.667.651 5.681.413-.52.71-.881.996-1.251 1.34-1.725 2.725-3.411 3.993-5.179.974-1.356 1.802-2.806 2.679-4.225.61-.986 1.254-1.955 1.771-2.986 1.238-2.459 3.209-4.301 5.089-6.221 1.193-1.221 2.093-2.537 2.662-4.156.733-2.052 1.653-4.033 2.449-6.058.239-.611.593-.881 1.247-.982 1.513-.231 3.008-.584 4.521-.816.631-.097.918-.381 1.138-.959.659-1.683 1.39-3.333 2.078-4.996.236-.588.599-1.026 1.13-1.393 2.212-1.535 4.388-3.118 6.603-4.656.496-.348.831-.757 1.067-1.313 1.507-3.463 3.043-6.913 4.575-10.367.138-.31.287-.617.466-1.001 1.336.065 2.696.101 4.044.214.56.048.967-.078 1.379-.466.629-.607 1.31-1.16 2.026-1.788.607.679 1.145 1.285 1.683 1.893 1.155 1.299 2.164 2.783 3.499 3.85 1.307 1.042 2.973 1.629 4.444 2.474 3.329 1.893 6.894 3.243 10.365 4.808.549.244.879.569 1.089 1.115.649 1.615 1.364 3.195 2.007 4.811.238.6.587 1.031 1.141 1.367 1.487.898 2.961 1.814 4.397 2.786.494.328.953.776 1.286 1.266 1.895 2.797 3.743 5.621 5.6 8.441.223.339.438.691.607 1.063 1.438 3.202 2.861 6.413 4.285 9.622.074.153.125.312.227.567-.717.405-1.415.81-2.125 1.198-2.837 1.551-5.673 3.115-8.536 4.636-.558.301-.886.686-1.092 1.262-.363 1.027-.76 2.045-1.144 3.063-.136.342-.282.681-.468 1.128-.246-.247-.448-.41-.607-.605-1.819-2.213-3.65-4.418-5.441-6.651-.492-.622-1.043-.97-1.861-1.085-2.022-.282-4.032-.663-6.161-1.027.054.292.058.519.148.713.554 1.279 1.114 2.558 1.701 3.824.23.492.272.951.113 1.476-.407 1.398-.779 2.813-1.189 4.324-.275-.189-.475-.293-.64-.44-1.04-.977-2.072-1.977-3.136-2.936-.38-.346-.556-.742-.622-1.233-.104-.764-.246-1.522-.396-2.44-.267.251-.438.381-.577.548-3.558 4.361-7.101 8.721-10.664 13.078-.292.357-.503.703-.456 1.189.192 1.792.363 3.585.558 5.494 1.018-.009 1.996-.013 2.968-.029.442-.01.892-.112 1.32-.055.889.124 1.446-.261 2.003-.91 2.448-2.839 4.955-5.628 7.416-8.454.399-.454.774-.647 1.4-.515 1.273.264 2.557.428 3.825.67.489.094.842-.015 1.187-.376.893-.925 1.824-1.813 2.793-2.765 2.495 1.514 4.92 2.993 7.436 4.517.661-.888 1.28-1.729 1.905-2.571.082-.108.181-.21.238-.328.377-.74.946-1.013 1.802-.989 3.227.082 6.456.091 9.686.125.341.006.683.037 1.024-.007 1.898-.233 3.494.708 5.147 1.377 4.983 2.011 9.959 4.05 14.928 6.076.061.024.135.024.337.059.856-.63 1.81-1.286 2.713-2.006.233-.184.387-.547.452-.855.18-.798.303-1.61.422-2.42.06-.43.233-.74.594-1.007 4.947-3.634 9.879-7.285 14.816-10.929.084-.06.184-.091.337-.17.904.736 1.807 1.506 2.762 2.215.367.271.82.469 1.264.572.927.209 1.874.333 2.876.504.192-1.126.389-2.183.553-3.243.097-.708.128-1.424.201-2.134.134-1.186.233-2.372.425-3.547.062-.413.244-.861.515-1.177 6.525-7.642 13.078-15.272 19.615-22.904 1.939-2.248 3.874-4.497 5.803-6.743.22-.253.446-.501.874-.989.125.345.172.587.29.787 1.71 2.99 3.421 5.979 5.151 8.955.279.47.366.927.307 1.458-.662 5.344-.973 10.716-1.271 16.087-.03.511-.039.998.316 1.45 3.862 4.938 6.685 10.523 9.815 15.919 2.328 4.009 4.608 8.046 6.909 12.074.119.207.219.42.369.713-.94.546-1.877 1.081-2.926 1.687" fill="#b0e159" transform="translate(415.54 403.9673)"/><path d="m0 0c-.009 4.976-.072 9.946-.085 14.928.002.593.132 1.218.336 1.777.631 1.804 1.303 3.585 2.011 5.361.212.541.17.936-.199 1.395-1.611 2.032-3.203 4.075-4.779 6.132-.273.361-.588.513-1.021.561-.95.094-1.891.233-2.84.343-.668.076-1.333.143-2.168.229.117-1.542.189-2.898.332-4.248.07-.672-.01-1.253-.343-1.858-1.289-2.289-2.531-4.599-3.768-6.916-.306-.572-.715-.945-1.29-1.234-2.195-1.089-4.364-2.231-6.563-3.323-.472-.234-.709-.539-.814-1.063-.26-1.373-.557-2.739-.894-4.094-.158-.622-.019-1.088.376-1.591 1.768-2.247 3.492-4.528 5.232-6.802.163-.208.311-.428.494-.69-1.568-1.568-3.101-3.094-4.546-4.543 1.565-4.462 3.823-8.417 6.052-12.384.318-.563.689-.844 1.341-.881 1.729-.102 3.453-.245 5.179-.397.509-.047.815.146 1.092.555.852 1.241 1.757 2.432 2.591 3.684.335.496.613 1.061.779 1.643 1.098 3.762 2.17 7.525 3.223 11.307.188.674.276 1.403.272 2.109" fill="#b0e159" transform="translate(424.3857 159.9687)"/><path d="m0 0c-.088-.532-.233-1.064-.456-1.552-.942-2.077-1.908-4.149-2.899-6.2-.279-.561-.249-.989.09-1.511 1.192-1.855 2.307-3.764 3.532-5.605.923-1.382 1.587-2.817 1.736-4.498.107-1.183.385-2.354.588-3.524.052-.296.136-.589.205-.911 1.017-.025 2.018-.157 3.019-.238-.043 11.56-1.015 23.274-3.021 35.064-.105.634-.229 1.262-.344 1.893-.688-2.841-1.368-5.686-1.76-8.591-.193-1.449-.431-2.892-.69-4.327" fill="#b0e159" transform="translate(596.2061 305.8218)"/><path d="m0 0c.245.161.393.241.522.346 1.943 1.651 3.876 3.32 5.839 4.948.571.472.748.958.574 1.68-.539 2.217-1.012 4.449-1.556 6.662-.084.363-.372.718-.651.981-1.417 1.33-2.859 2.63-4.298 3.937-.242.224-.506.428-.755.636-.141-.1-.25-.141-.3-.217-1.023-1.566-2.06-3.128-3.058-4.711-.116-.194-.127-.523-.076-.759.277-1.125.57-2.243.878-3.356.652-2.323 1.309-4.642 1.971-6.959.295-1.039.594-2.074.91-3.188" fill="#b0e159" transform="translate(519.4834 276.9062)"/><path d="m0 0c-.35-.959-.993-1.699-1.913-2.159-.721-.361-1.151-.929-1.332-1.695-.175-.732-.541-1.308-1.247-1.633-.966-.45-1.443-1.105-1.122-2.249.15-.531-.069-1.149.322-1.681.959.038 1.905.084 2.852.106 1.169.032 2.283.162 3.244.958.654.536 1.412.939 2.109 1.424.248.173.53.363.656.614.346.701.633 1.432.915 2.164.065.172.055.405.007.588-.359 1.381-.742 2.755-1.135 4.198-.7.059-1.311.098-1.918.163-.676.077-1.179-.09-1.438-.798" fill="#b0e159" transform="translate(266.0786 417.3926)"/><path d="m0 0c-.321.328-.605.736-.788 1.164-1.067 2.543-2.122 5.097-3.147 7.663-.221.567-.542.994-1.029 1.347-1.501 1.119-3.004 2.24-4.484 3.396-1.901 1.491-3.966 2.774-5.621 4.573-1.319 1.428-2.71 2.792-4.063 4.183-.516.533-1.044 1.057-1.565 1.588-.086-.028-.164-.048-.255-.073.018-.328.008-.662.054-.985.168-1.215.373-2.424.543-3.645.121-.92.409-1.755.89-2.568 2.721-4.558 5.309-9.194 8.107-13.697 3.468-5.58 7.097-11.057 10.662-16.574.114-.183.284-.329.458-.524.088.16.153.244.181.336 1.093 3.302 2.176 6.608 3.283 9.901.168.51.025.825-.343 1.162-.98.899-1.946 1.81-2.883 2.753" fill="#b0e159" transform="translate(592.5605 277.1152)"/></g><g clip-path="url(#k)" opacity=".199997"><path d="m0 0c4.264 114.222-82.629 210.191-194.081 214.346-6.619.248-13.175.154-19.656-.243 83.743-13.25 146.216-103.998 142.206-211.434-4.004-107.44-73.066-193.279-157.563-200.256 6.436-.878 12.967-1.459 19.588-1.707 111.446-4.156 205.246 85.071 209.506 199.294" fill-rule="evenodd" transform="translate(601.7187 275.4736)"/></g></g></g><g transform="translate(-86.081471 27.124668)"><g transform="matrix(.80818458 0 0 .80818458 139.3055 -55.883234)"><path d="m98.084821 96.105653v68.791667l-43.653945 25.20362" fill="none" marker-end="url(#m)" marker-start="url(#l)" stroke="#000" stroke-width=".846667"/><path d="m98.084819 164.89732h66.145831" fill="none" marker-end="url(#n)" stroke="#000" stroke-width=".846667"/><g font-family="sans-serif" font-size="10.583333" letter-spacing="0" stroke-width=".264583" word-spacing="0"><text x="51.59375" y="183.60713"><tspan stroke-width=".264583" x="51.59375" y="183.60713">x</tspan></text><text x="158.939" y="157.90477"><tspan stroke-width=".264583" x="158.939" y="157.90477">y</tspan></text><text x="102.62054" y="98.184525"><tspan stroke-width=".264583" x="102.62054" y="98.184525">z</tspan></text></g></g><g stroke="#000"><path d="m228.25554 69.576558-1.18698.189672-2.63203 3.779005 4.62634 2.021724 1.121-.301698" fill="none" stroke-width=".264583"/><path d="m206.1902 74.666194 1.34454-.390006 4.80479 1.97412" fill="none" stroke-width=".264583"/><path d="m208.10991 80.423739 1.42179-.244415 2.80779-3.929045" fill="none" stroke-width=".264583"/><path d="m173.16295 90.678203-1.50198-10.129412 33.82737-7.392894 3.28194 9.136579z" fill="#000080" stroke-width=".264583"/><path d="m230.64973 76.964519-2.90298-8.983786 27.10849-6.249842 3.62087 8.62106z" fill="#000080" stroke-width=".264583"/><path d="m215.0907 82.067764 10.51752-2.767199.17145-8.892616-10.88646 2.510092z" fill="#ff0" stroke-width=".264583"/><path d="m215.0907 82.067764-3.55146-5.701238-.17985-9.691338 3.53382 6.242853z" fill="#ff0" stroke-linejoin="round" stroke-width=".265"/><path d="m225.77967 70.407949-3.68451-5.812457-10.73577 2.079696 3.53382 6.242853z" fill="#ff0" stroke-width=".264583"/><path d="m212.52496 64.795984-.0111 2.782841 1.48973 2.055314 4.10894 1.249433 4.53779-1.10453 1.79586-2.376833.0854-3.766431-11.89903-.664625z" fill="#ff0" stroke-width=".264583"/><path d="m213.8652 56.885756-1.22419.272942-3.23057 3.399652 2.16023 3.97214 6.62158 1.769731 6.65483-1.565085 2.50557-3.425289-2.55236-3.886275-10.93509-.537815" fill="#ff0" stroke-width=".264583"/><path d="m213.87825 54.118661.12097 8.9741s2.70989 2.303585 4.40815 2.301574c1.69826-.002 4.61864-2.425438 4.61864-2.425438l.0476-8.567858z" fill="#ff0" stroke-width=".264583"/><ellipse cx="-68.935341" cy="214.27461" rx="3.49806" ry="4.376344" stroke-linecap="round" stroke-width=".264999" transform="matrix(-.0677134 -.99770481 .99770481 -.0677134 0 0)"/></g><text font-family="sans-serif" font-size="10.583333" letter-spacing="0" stroke-width=".264583" word-spacing="0" x="221.46974" y="38.403229"><tspan font-size="7.055556" stroke-width=".264583" x="221.46974" y="38.403229">spin</tspan><tspan font-size="7.055556" stroke-width=".264583" x="221.46974" y="45.493237">axis</tspan></text></g><path d="m129.71693-144.53773v20.12103h-6.37803l6.50846 6.22316 6.50845 6.22337 6.50845-6.22337 6.50846-6.22316h-6.37845v-20.12103z" stroke="#000" stroke-width=".381384"/><path d="m129.71693-1.90702v20.12103h-6.37803l6.50846 6.22316 6.50845 6.223371 6.50845-6.223371 6.50846-6.22316h-6.37845v-20.12103z" stroke="#000" stroke-width=".381384"/><path d="m129.71693 140.72368v20.12103h-6.37803l6.50846 6.22316 6.50845 6.22337 6.50845-6.22337 6.50846-6.22316h-6.37845v-20.12103z" stroke="#000" stroke-width=".381384"/><g font-family="sans-serif" font-size="10.583333" letter-spacing="0" stroke-width=".264583" word-spacing="0"><text x="238.66386" y="-195.75"><tspan stroke-width=".264583" x="238.66386" y="-195.75">Detector</tspan></text><text x="225.18666" y="-53.9823"><tspan stroke-width=".264583" x="225.18666" y="-53.9823">Focal plane</tspan></text><text x="228.4371" y="88.648399"><tspan stroke-width=".264583" x="228.4371" y="88.648399">Spacecraft</tspan></text><text x="214.60332" y="181.43788"><tspan stroke-width=".264583" x="214.60332" y="181.43788">Ecliptic plane</tspan></text></g></g></svg>