<svg height="310.86825pt" stroke-linejoin="round" viewBox="0 0 404.923125 310.86825" width="404.923125pt" xmlns="http://www.w3.org/2000/svg" xmlns:xlink="http://www.w3.org/1999/xlink"><defs stroke-linejoin="round"><clipPath id="a" stroke-linejoin="round"><path d="m40.603125 7.2h357.12v266.112h-357.12z"/></clipPath><path id="b" d="m0 0v3.5" stroke="#000" stroke-linejoin="round" stroke-width=".8"/><path id="c" d="m31.78125 66.40625q-7.609375 0-11.453125-7.5-3.828125-7.484375-3.828125-22.53125 0-14.984375 3.828125-22.484375 3.84375-7.5 11.453125-7.5 7.671875 0 11.5 7.5 3.84375 7.5 3.84375 22.484375 0 15.046875-3.84375 22.53125-3.828125 7.5-11.5 7.5zm0 7.8125q12.265625 0 18.734375-9.703125 6.46875-9.6875 6.46875-28.140625 0-18.40625-6.46875-28.109375-6.46875-9.6875-18.734375-9.6875-12.25 0-18.71875 9.6875-6.46875 9.703125-6.46875 28.109375 0 18.453125 6.46875 28.140625 6.46875 9.703125 18.71875 9.703125z" stroke-linejoin="round"/><path id="d" d="m12.40625 8.296875h16.109375v55.625l-17.53125-3.515625v8.984375l17.4375 3.515625h9.859375v-64.609375h16.109375v-8.296875h-41.984375z" stroke-linejoin="round"/><path id="e" d="m19.1875 8.296875h34.421875v-8.296875h-46.28125v8.296875q5.609375 5.8125 15.296875 15.59375 9.703125 9.796875 12.1875 12.640625 4.734375 5.3125 6.609375 9 1.890625 3.6875 1.890625 7.25 0 5.8125-4.078125 9.46875-4.078125 3.671875-10.625 3.671875-4.640625 0-9.796875-1.609375-5.140625-1.609375-11-4.890625v9.96875q5.953125 2.390625 11.125 3.609375 5.1875 1.21875 9.484375 1.21875 11.328125 0 18.0625-5.671875 6.734375-5.65625 6.734375-15.125 0-4.5-1.6875-8.53125-1.671875-4.015625-6.125-9.484375-1.21875-1.421875-7.765625-8.1875-6.53125-6.765625-18.453125-18.921875z" stroke-linejoin="round"/><path id="f" d="m40.578125 39.3125q7.078125-1.515625 11.046875-6.3125 3.984375-4.78125 3.984375-11.8125 0-10.78125-7.421875-16.703125-7.421875-5.90625-21.09375-5.90625-4.578125 0-9.4375.90625-4.859375.90625-10.03125 2.71875v9.515625q4.09375-2.390625 8.96875-3.609375 4.890625-1.21875 10.21875-1.21875 9.265625 0 14.125 3.65625 4.859375 3.65625 4.859375 10.640625 0 6.453125-4.515625 10.078125-4.515625 3.640625-12.5625 3.640625h-8.5v8.109375h8.890625q7.265625 0 11.125 2.90625 3.859375 2.90625 3.859375 8.375 0 5.609375-3.984375 8.609375-3.96875 3.015625-11.390625 3.015625-4.0625 0-8.703125-.890625-4.640625-.875-10.203125-2.71875v8.78125q5.625 1.5625 10.53125 2.34375 4.90625.78125 9.25.78125 11.234375 0 17.765625-5.109375 6.546875-5.09375 6.546875-13.78125 0-6.0625-3.46875-10.234375-3.46875-4.171875-9.859375-5.78125z" stroke-linejoin="round"/><path id="g" d="m37.796875 64.3125-24.90625-38.921875h24.90625zm-2.59375 8.59375h12.40625v-47.515625h10.40625v-8.203125h-10.40625v-17.1875h-9.8125v17.1875h-32.90625v9.515625z" stroke-linejoin="round"/><path id="h" d="m10.796875 72.90625h38.71875v-8.3125h-29.6875v-17.859375q2.140625.734375 4.28125 1.09375 2.15625.359375 4.3125.359375 12.203125 0 19.328125-6.6875 7.140625-6.6875 7.140625-18.109375 0-11.765625-7.328125-18.296875-7.328125-6.515625-20.65625-6.515625-4.59375 0-9.359375.78125-4.75.78125-9.828125 2.34375v9.921875q4.390625-2.390625 9.078125-3.5625 4.6875-1.171875 9.90625-1.171875 8.453125 0 13.375 4.4375 4.9375 4.4375 4.9375 12.0625 0 7.609375-4.9375 12.046875-4.921875 4.453125-13.375 4.453125-3.953125 0-7.890625-.875-3.921875-.875-8.015625-2.734375z" stroke-linejoin="round"/><path id="i" d="m33.015625 40.375q-6.640625 0-10.53125-4.546875-3.875-4.53125-3.875-12.4375 0-7.859375 3.875-12.4375 3.890625-4.5625 10.53125-4.5625 6.640625 0 10.515625 4.5625 3.875 4.578125 3.875 12.4375 0 7.90625-3.875 12.4375-3.875 4.546875-10.515625 4.546875zm19.578125 30.921875v-8.984375q-3.71875 1.75-7.5 2.671875-3.78125.9375-7.5.9375-9.765625 0-14.921875-6.59375-5.140625-6.59375-5.875-19.921875 2.875 4.25 7.21875 6.515625 4.359375 2.265625 9.578125 2.265625 10.984375 0 17.359375-6.671875 6.375-6.65625 6.375-18.125 0-11.234375-6.640625-18.03125-6.640625-6.78125-17.671875-6.78125-12.65625 0-19.34375 9.6875-6.6875 9.703125-6.6875 28.109375 0 17.28125 8.203125 27.5625 8.203125 10.28125 22.015625 10.28125 3.71875 0 7.5-.734375 3.78125-.734375 7.890625-2.1875z" stroke-linejoin="round"/><path id="j" d="m9.421875 54.6875h8.984375v-54.6875h-8.984375zm0 21.296875h8.984375v-11.390625h-8.984375z" stroke-linejoin="round"/><path id="k" d="m56.203125 29.59375v-4.390625h-41.3125q.59375-9.28125 5.59375-14.140625 5-4.859375 13.9375-4.859375 5.171875 0 10.03125 1.265625 4.859375 1.265625 9.65625 3.8125v-8.5q-4.84375-2.046875-9.921875-3.125-5.078125-1.078125-10.296875-1.078125-13.09375 0-20.734375 7.609375-7.640625 7.625-7.640625 20.625 0 13.421875 7.25 21.296875 7.25 7.890625 19.5625 7.890625 11.03125 0 17.453125-7.109375 6.421875-7.09375 6.421875-19.296875zm-8.984375 2.640625q-.09375 7.359375-4.125 11.75-4.03125 4.40625-10.671875 4.40625-7.515625 0-12.03125-4.25-4.515625-4.25-5.203125-11.96875z" stroke-linejoin="round"/><path id="l" d="m8.59375 75.984375h20.703125v-6.984375h-11.71875v-75.203125h11.71875v-6.984375h-20.703125z" stroke-linejoin="round"/><path id="m" d="m44.28125 53.078125v-8.5q-3.796875 1.953125-7.90625 2.921875-4.09375.984375-8.5.984375-6.6875 0-10.03125-2.046875-3.34375-2.046875-3.34375-6.15625 0-3.125 2.390625-4.90625 2.390625-1.78125 9.625-3.390625l3.078125-.6875q9.5625-2.046875 13.59375-5.78125 4.03125-3.734375 4.03125-10.421875 0-7.625-6.03125-12.078125-6.03125-4.4375-16.578125-4.4375-4.390625 0-9.15625.859375-4.765625.859375-10.03125 2.5625v9.28125q4.984375-2.59375 9.8125-3.890625 4.828125-1.28125 9.578125-1.28125 6.34375 0 9.75 2.171875 3.421875 2.171875 3.421875 6.125 0 3.65625-2.46875 5.609375-2.453125 1.953125-10.8125 3.765625l-3.125.734375q-8.34375 1.75-12.0625 5.390625-3.703125 3.640625-3.703125 9.984375 0 7.71875 5.46875 11.90625 5.46875 4.203125 15.53125 4.203125 4.96875 0 9.359375-.734375 4.40625-.71875 8.109375-2.1875z" stroke-linejoin="round"/><path id="n" d="m30.421875 75.984375v-89.171875h-20.703125v6.984375h11.671875v75.203125h-11.671875v6.984375z" stroke-linejoin="round"/><path id="o" d="m0 0h-3.5" stroke="#000" stroke-linejoin="round" stroke-width=".8"/><path id="p" d="m54.890625 33.015625v-33.015625h-8.984375v32.71875q0 7.765625-3.03125 11.609375-3.03125 3.859375-9.078125 3.859375-7.28125 0-11.484375-4.640625-4.203125-4.625-4.203125-12.640625v-30.90625h-9.03125v54.6875h9.03125v-8.5q3.234375 4.9375 7.59375 7.375 4.375 2.4375 10.09375 2.4375 9.421875 0 14.25-5.828125 4.84375-5.828125 4.84375-17.15625z" stroke-linejoin="round"/><path id="q" d="m45.40625 27.984375q0 9.765625-4.03125 15.125-4.015625 5.375-11.296875 5.375-7.21875 0-11.25-5.375-4.03125-5.359375-4.03125-15.125 0-9.71875 4.03125-15.09375 4.03125-5.375 11.25-5.375 7.28125 0 11.296875 5.375 4.03125 5.375 4.03125 15.09375zm8.984375-21.203125q0-13.953125-6.203125-20.765625-6.1875-6.8125-18.984375-6.8125-4.734375 0-8.9375.703125-4.203125.703125-8.15625 2.171875v8.734375q3.953125-2.140625 7.8125-3.15625 3.859375-1.03125 7.859375-1.03125 8.84375 0 13.234375 4.609375 4.390625 4.609375 4.390625 13.9375v4.453125q-2.78125-4.84375-7.125-7.234375-4.34375-2.390625-10.40625-2.390625-10.046875 0-16.203125 7.65625-6.15625 7.671875-6.15625 20.328125 0 12.6875 6.15625 20.34375 6.15625 7.671875 16.203125 7.671875 6.0625 0 10.40625-2.390625 4.34375-2.390625 7.125-7.21875v8.296875h8.984375z" stroke-linejoin="round"/><path id="r" d="m34.28125 27.484375q-10.890625 0-15.09375-2.484375-4.203125-2.484375-4.203125-8.5 0-4.78125 3.15625-7.59375 3.15625-2.796875 8.5625-2.796875 7.484375 0 12 5.296875 4.515625 5.296875 4.515625 14.078125v2zm17.921875 3.71875v-31.203125h-8.984375v8.296875q-3.078125-4.96875-7.671875-7.34375-4.59375-2.375-11.234375-2.375-8.390625 0-13.359375 4.71875-4.953125 4.71875-4.953125 12.625 0 9.21875 6.171875 13.90625 6.1875 4.6875 18.4375 4.6875h12.609375v.890625q0 6.203125-4.078125 9.59375-4.078125 3.390625-11.453125 3.390625-4.6875 0-9.140625-1.125-4.4375-1.125-8.53125-3.375v8.3125q4.921875 1.90625 9.5625 2.84375 4.640625.953125 9.03125.953125 11.875 0 17.734375-6.15625 5.859375-6.140625 5.859375-18.640625z" stroke-linejoin="round"/><path id="s" d="m41.109375 46.296875q-1.515625.875-3.296875 1.28125-1.78125.421875-3.921875.421875-7.625 0-11.703125-4.953125-4.078125-4.953125-4.078125-14.234375v-28.8125h-9.03125v54.6875h9.03125v-8.5q2.84375 4.984375 7.375 7.390625 4.546875 2.421875 11.046875 2.421875.921875 0 2.046875-.125 1.125-.109375 2.484375-.359375z" stroke-linejoin="round"/></defs><g stroke-linejoin="round"><path d="m0 310.86825h404.923125v-310.86825h-404.923125z" fill="#fff"/><g><path d="m40.603125 273.312h357.12v-266.112h-357.12z" fill="#fff" stroke-linejoin="round"/><g stroke-linejoin="round"><g><use stroke="#000" stroke-width=".8" x="56.835852" xlink:href="#b" y="273.312"/><use transform="matrix(.1 0 0 -.1 53.654602 287.910437)" xlink:href="#c"/></g><g><use stroke="#000" stroke-width=".8" x="111.035276" xlink:href="#b" y="273.312"/><g transform="matrix(.1 0 0 -.1 104.672776 287.910437)"><use xlink:href="#d"/><use x="63.623047" xlink:href="#c"/></g></g><g><use stroke="#000" stroke-width=".8" x="165.234699" xlink:href="#b" y="273.312"/><g transform="matrix(.1 0 0 -.1 158.872199 287.910437)"><use xlink:href="#e"/><use x="63.623047" xlink:href="#c"/></g></g><g><use stroke="#000" stroke-width=".8" x="219.434122" xlink:href="#b" y="273.312"/><g transform="matrix(.1 0 0 -.1 213.071622 287.910437)"><use xlink:href="#f"/><use x="63.623047" xlink:href="#c"/></g></g><g><use stroke="#000" stroke-width=".8" x="273.633545" xlink:href="#b" y="273.312"/><g transform="matrix(.1 0 0 -.1 267.271045 287.910437)"><use xlink:href="#g"/><use x="63.623047" xlink:href="#c"/></g></g><g><use stroke="#000" stroke-width=".8" x="327.832969" xlink:href="#b" y="273.312"/><g transform="matrix(.1 0 0 -.1 321.470469 287.910437)"><use xlink:href="#h"/><use x="63.623047" xlink:href="#c"/></g></g><g><use stroke="#000" stroke-width=".8" x="382.032392" xlink:href="#b" y="273.312"/><g transform="matrix(.1 0 0 -.1 375.669892 287.910437)"><use xlink:href="#i"/><use x="63.623047" xlink:href="#c"/></g></g><g transform="matrix(.1 0 0 -.1 198.834219 301.588562)"><path d="m-.296875 72.90625h61.671875v-8.3125h-25.875v-64.59375h-9.90625v64.59375h-25.890625z"/><use x="57.958984" xlink:href="#j"/><path d="m52 44.1875q3.375 6.0625 8.0625 8.9375 4.6875 2.875 11.03125 2.875 8.546875 0 13.1875-5.984375 4.640625-5.96875 4.640625-17v-33.015625h-9.03125v32.71875q0 7.859375-2.796875 11.65625-2.78125 3.8125-8.484375 3.8125-6.984375 0-11.046875-4.640625-4.046875-4.625-4.046875-12.640625v-30.90625h-9.03125v32.71875q0 7.90625-2.78125 11.6875-2.78125 3.78125-8.59375 3.78125-6.890625 0-10.953125-4.65625-4.046875-4.65625-4.046875-12.625v-30.90625h-9.03125v54.6875h9.03125v-8.5q3.078125 5.03125 7.375 7.421875 4.296875 2.390625 10.203125 2.390625 5.96875 0 10.140625-3.03125 4.171875-3.015625 6.171875-8.78125z" transform="translate(85.742188)"/><use x="183.154297" xlink:href="#k"/><use x="276.464844" xlink:href="#l"/><use x="315.478516" xlink:href="#m"/><use x="367.578125" xlink:href="#n"/></g></g><g stroke-linejoin="round"><g><use stroke="#000" stroke-width=".8" x="40.603125" xlink:href="#o" y="265.590385"/><g transform="matrix(.1 0 0 -.1 20.878125 269.389603)"><use xlink:href="#d"/><use x="63.623047" xlink:href="#c"/></g></g><g><use stroke="#000" stroke-width=".8" x="40.603125" xlink:href="#o" y="235.152209"/><g transform="matrix(.1 0 0 -.1 20.878125 238.951428)"><use xlink:href="#e"/><use x="63.623047" xlink:href="#c"/></g></g><g><use stroke="#000" stroke-width=".8" x="40.603125" xlink:href="#o" y="204.714034"/><g transform="matrix(.1 0 0 -.1 20.878125 208.513253)"><use xlink:href="#f"/><use x="63.623047" xlink:href="#c"/></g></g><g><use stroke="#000" stroke-width=".8" x="40.603125" xlink:href="#o" y="174.275859"/><g transform="matrix(.1 0 0 -.1 20.878125 178.075078)"><use xlink:href="#g"/><use x="63.623047" xlink:href="#c"/></g></g><g><use stroke="#000" stroke-width=".8" x="40.603125" xlink:href="#o" y="143.837684"/><g transform="matrix(.1 0 0 -.1 20.878125 147.636903)"><use xlink:href="#h"/><use x="63.623047" xlink:href="#c"/></g></g><g><use stroke="#000" stroke-width=".8" x="40.603125" xlink:href="#o" y="113.399509"/><g transform="matrix(.1 0 0 -.1 20.878125 117.198727)"><use xlink:href="#i"/><use x="63.623047" xlink:href="#c"/></g></g><g><use stroke="#000" stroke-width=".8" x="40.603125" xlink:href="#o" y="82.961333"/><g transform="matrix(.1 0 0 -.1 20.878125 86.760552)"><path d="m8.203125 72.90625h46.875v-4.203125l-26.46875-68.703125h-10.296875l24.90625 64.59375h-35.015625z"/><use x="63.623047" xlink:href="#c"/></g></g><g><use stroke="#000" stroke-width=".8" x="40.603125" xlink:href="#o" y="52.523158"/><g transform="matrix(.1 0 0 -.1 20.878125 56.322377)"><path d="m31.78125 34.625q-7.03125 0-11.0625-3.765625-4.015625-3.765625-4.015625-10.34375 0-6.59375 4.015625-10.359375 4.03125-3.765625 11.0625-3.765625 7.03125 0 11.078125 3.78125 4.0625 3.796875 4.0625 10.34375 0 6.578125-4.03125 10.34375-4.015625 3.765625-11.109375 3.765625zm-9.859375 4.1875q-6.34375 1.5625-9.890625 5.90625-3.53125 4.359375-3.53125 10.609375 0 8.734375 6.21875 13.8125 6.234375 5.078125 17.0625 5.078125 10.890625 0 17.09375-5.078125 6.203125-5.078125 6.203125-13.8125 0-6.25-3.546875-10.609375-3.53125-4.34375-9.828125-5.90625 7.125-1.65625 11.09375-6.5 3.984375-4.828125 3.984375-11.796875 0-10.609375-6.46875-16.28125-6.46875-5.65625-18.53125-5.65625-12.046875 0-18.53125 5.65625-6.46875 5.671875-6.46875 16.28125 0 6.96875 4 11.796875 4.015625 4.84375 11.140625 6.5zm-3.609375 15.578125q0-5.65625 3.53125-8.828125 3.546875-3.171875 9.9375-3.171875 6.359375 0 9.9375 3.171875 3.59375 3.171875 3.59375 8.828125 0 5.671875-3.59375 8.84375-3.578125 3.171875-9.9375 3.171875-6.390625 0-9.9375-3.171875-3.53125-3.171875-3.53125-8.84375z"/><use x="63.623047" xlink:href="#c"/></g></g><g><use stroke="#000" stroke-width=".8" x="40.603125" xlink:href="#o" y="22.084983"/><g transform="matrix(.1 0 0 -.1 20.878125 25.884202)"><path d="m10.984375 1.515625v8.984375q3.71875-1.765625 7.515625-2.6875 3.8125-.921875 7.484375-.921875 9.765625 0 14.90625 6.5625 5.15625 6.5625 5.890625 19.953125-2.828125-4.203125-7.1875-6.453125-4.34375-2.25-9.609375-2.25-10.9375 0-17.3125 6.609375-6.375 6.625-6.375 18.109375 0 11.21875 6.640625 18 6.640625 6.796875 17.671875 6.796875 12.65625 0 19.3125-9.703125 6.671875-9.6875 6.671875-28.140625 0-17.234375-8.1875-27.515625-8.171875-10.28125-21.984375-10.28125-3.71875 0-7.53125.734375-3.796875.734375-7.90625 2.203125zm19.625 30.90625q6.640625 0 10.515625 4.53125 3.890625 4.546875 3.890625 12.46875 0 7.859375-3.890625 12.421875-3.875 4.5625-10.515625 4.5625-6.640625 0-10.515625-4.5625-3.875-4.5625-3.875-12.421875 0-7.921875 3.875-12.46875 3.875-4.53125 10.515625-4.53125z"/><use x="63.623047" xlink:href="#c"/></g></g><g transform="matrix(0 -.1 -.1 0 14.798438 202.817719)"><path d="m34.1875 63.1875-13.390625-36.28125h26.8125zm-5.578125 9.71875h11.1875l27.78125-72.90625h-10.25l-6.640625 18.703125h-32.859375l-6.640625-18.703125h-10.40625z"/><use x="68.408203" xlink:href="#p"/><use x="131.787109" xlink:href="#q"/><path d="m8.5 21.578125v33.109375h8.984375v-32.765625q0-7.765625 3.015625-11.65625 3.03125-3.875 9.09375-3.875 7.265625 0 11.484375 4.640625 4.234375 4.640625 4.234375 12.65625v31h8.984375v-54.6875h-8.984375v8.40625q-3.265625-4.984375-7.59375-7.40625-4.3125-2.421875-10.03125-2.421875-9.421875 0-14.3125 5.859375-4.875 5.859375-4.875 17.140625z" transform="translate(195.263672)"/><path d="m9.421875 75.984375h8.984375v-75.984375h-8.984375z" transform="translate(258.642578)"/><use x="286.425781" xlink:href="#r"/><use x="347.705078" xlink:href="#s"/><use x="420.605469" xlink:href="#m"/><use x="472.705078" xlink:href="#k"/><path d="m18.109375 8.203125v-29h-9.03125v75.484375h9.03125v-8.296875q2.84375 4.875 7.15625 7.234375 4.328125 2.375 10.328125 2.375 9.96875 0 16.1875-7.90625 6.234375-7.90625 6.234375-20.796875 0-12.890625-6.234375-20.8125-6.21875-7.90625-16.1875-7.90625-6 0-10.328125 2.375-4.3125 2.375-7.15625 7.25zm30.578125 19.09375q0 9.90625-4.078125 15.546875-4.078125 5.640625-11.203125 5.640625-7.140625 0-11.21875-5.640625-4.078125-5.640625-4.078125-15.546875 0-9.90625 4.078125-15.546875 4.078125-5.640625 11.21875-5.640625 7.125 0 11.203125 5.640625 4.078125 5.640625 4.078125 15.546875z" transform="translate(534.228516)"/><use x="597.705078" xlink:href="#r"/><use x="658.984375" xlink:href="#s"/><use x="700.097656" xlink:href="#r"/><path d="m18.3125 70.21875v-15.53125h18.5v-6.984375h-18.5v-29.6875q0-6.6875 1.828125-8.59375 1.828125-1.90625 7.453125-1.90625h9.21875v-7.515625h-9.21875q-10.40625 0-14.359375 3.875-3.953125 3.890625-3.953125 14.140625v29.6875h-6.59375v6.984375h6.59375v15.53125z" transform="translate(761.376953)"/><use x="800.585938" xlink:href="#j"/><path d="m30.609375 48.390625q-7.21875 0-11.421875-5.640625-4.203125-5.640625-4.203125-15.453125 0-9.8125 4.171875-15.453125 4.1875-5.640625 11.453125-5.640625 7.1875 0 11.375 5.65625 4.203125 5.671875 4.203125 15.4375 0 9.71875-4.203125 15.40625-4.1875 5.6875-11.375 5.6875zm0 7.609375q11.71875 0 18.40625-7.625 6.703125-7.609375 6.703125-21.078125 0-13.421875-6.703125-21.078125-6.6875-7.640625-18.40625-7.640625-11.765625 0-18.4375 7.640625-6.65625 7.65625-6.65625 21.078125 0 13.46875 6.65625 21.078125 6.671875 7.625 18.4375 7.625z" transform="translate(828.369141)"/><use x="889.550781" xlink:href="#p"/><use x="984.716797" xlink:href="#l"/><path d="m45.40625 46.390625v29.59375h8.984375v-75.984375h-8.984375v8.203125q-2.828125-4.875-7.15625-7.25-4.3125-2.375-10.375-2.375-9.90625 0-16.140625 7.90625-6.21875 7.921875-6.21875 20.8125 0 12.890625 6.21875 20.796875 6.234375 7.90625 16.140625 7.90625 6.0625 0 10.375-2.375 4.328125-2.359375 7.15625-7.234375zm-30.609375-19.09375q0-9.90625 4.078125-15.546875 4.078125-5.640625 11.203125-5.640625 7.125 0 11.21875 5.640625 4.109375 5.640625 4.109375 15.546875 0 9.90625-4.109375 15.546875-4.09375 5.640625-11.21875 5.640625-7.125 0-11.203125-5.640625-4.078125-5.640625-4.078125-15.546875z" transform="translate(1023.730469)"/><use x="1087.207031" xlink:href="#k"/><use x="1148.730469" xlink:href="#q"/><use x="1212.207031" xlink:href="#n"/></g></g><g fill="none" stroke-linecap="square"><path clip-path="url(#a)" d="m56.835852 60.697377 23.305752 35.320155 60.703354 92.221281 12.465867 18.40118 9.213903 13.209131 7.045924 9.724992 5.419943 7.141846 4.877948 6.064486 3.79396 4.391974 3.251965 3.468344 3.251966 3.123121 2.709971 2.279941 2.167977 1.574507 2.167976 1.321817 2.167977 1.041248 2.167978.7358 1.625982.339476 1.625983.151249 1.625983-.039432 1.625982-.229469 1.625983-.415815 2.167977-.832804 2.167977-1.131016 2.167977-1.403155 2.167976-1.646966 2.709972-2.358279 2.709971-2.64238 3.251965-3.480592 3.79396-4.403204 4.335954-5.381162 5.419942-7.114196 6.503931-8.940219 8.129914-11.590763 10.29789-15.101233 13.549856-20.285117 21.137775-32.094212 53.657429-81.615825 19.511792-29.191435 8.129914-12.014651" stroke="#1f77b4" stroke-linejoin="round" stroke-width="1.5"/><path clip-path="url(#a)" d="m56.835852 60.697377 23.305752 35.320155 60.703354 92.221281 12.465867 18.40118 9.213903 13.209131 7.045924 9.724992 5.419943 7.141846 4.877948 6.064486 3.79396 4.391974 3.251965 3.468344 3.251966 3.123121 2.709971 2.279941 2.167977 1.574507 2.167976 1.321817 2.167977 1.041248 2.167978.7358 1.625982.339476 1.625983.151249 1.625983-.039432 1.625982-.229469 1.625983-.415815 2.167977-.832804 2.167977-1.131016 2.167977-1.403155 2.167976-1.646966 2.709972-2.358279 2.709971-2.64238 3.251965-3.480592 3.79396-4.403204 4.335954-5.381162 5.419942-7.114196 6.503931-8.940219 8.129914-11.590763 10.29789-15.101233 13.549856-20.285117 21.137775-32.094212 53.657429-81.615825 19.511792-29.191435 8.129914-12.014651" stroke="#ff7f0e" stroke-linejoin="round" stroke-width="1.5"/><path d="m40.603125 273.312v-266.112" stroke="#000" stroke-linejoin="miter" stroke-width=".8"/><path d="m397.723125 273.312v-266.112" stroke="#000" stroke-linejoin="miter" stroke-width=".8"/><path d="m40.603125 273.312h357.12" stroke="#000" stroke-linejoin="miter" stroke-width=".8"/><path d="m40.603125 7.2h357.12" stroke="#000" stroke-linejoin="miter" stroke-width=".8"/></g></g></g></svg>