<svg height="128.11205mm" viewBox="0 0 137.40288 128.11205" width="137.40288mm" xmlns="http://www.w3.org/2000/svg" xmlns:xlink="http://www.w3.org/1999/xlink"><marker id="a" orient="auto" overflow="visible" refX="0" refY="0"><path d="m0 0 5-5-17.5 5 17.5 5z" fill="#4a0" fill-rule="evenodd" stroke="#4a0" stroke-width="1pt" transform="matrix(-.8 0 0 -.8 -10 0)"/></marker><marker id="b" orient="auto" overflow="visible" refX="0" refY="0"><path d="m0 0 5-5-17.5 5 17.5 5z" fill="#00f" fill-rule="evenodd" stroke="#00f" stroke-width="1pt" transform="matrix(-.8 0 0 -.8 -10 0)"/></marker><marker id="c" orient="auto" overflow="visible" refX="0" refY="0"><path d="m0 0 5-5-17.5 5 17.5 5z" fill="#f00" fill-rule="evenodd" stroke="#f00" stroke-width="1pt" transform="matrix(-.8 0 0 -.8 -10 0)"/></marker><marker id="d" orient="auto" overflow="visible" refX="0" refY="0"><path d="m0 0 5-5-17.5 5 17.5 5z" fill-rule="evenodd" stroke="#000" stroke-width="1pt" transform="matrix(-.8 0 0 -.8 -10 0)"/></marker><g transform="translate(-58.500007 -57.131047)"><ellipse cx="172.9247" cy="125.64014" rx="13.099847" ry="59.349239" style="fill:none;stroke:#b3b3b3;stroke-width:.565;stroke-linecap:round;stroke-linejoin:round;stroke-dasharray:3.39 1.13"/><ellipse cx="69.917694" cy="156.64752" rx="3.233374" ry="23.812517" style="fill:none;stroke:#b3b3b3;stroke-width:.564999;stroke-linecap:round;stroke-linejoin:round;stroke-dasharray:3.39 1.13" transform="matrix(.79629006 -.60491499 .60491499 .79629006 0 0)"/><path d="m58.500007 125.76829h136.888423" fill="#00f" marker-end="url(#b)" stroke="#00f" stroke-width=".265"/><g stroke="#000"><path d="m91.644073 125.76207 81.310827-59.471174" fill="none" marker-end="url(#d)" stroke-width=".265"/><path d="m120.05629 117.59811-.84737-.85256-4.60471.0715 1.06185 4.93588.89974.73356" fill="none" stroke-width=".264583"/><path d="m103.03496 102.66299 1.10201.8634 1.20473 5.0529" fill="none" stroke-width=".264583"/><path d="m99.48356 107.58459 1.02898 1.01116 4.82916-.0165" fill="none" stroke-width=".264583"/><path d="m70.744984 85.211887 7.343693-7.136603 25.762033 23.135756-5.498048 8.00123z" fill="#000080" stroke-width=".264583"/><path d="m115.45882 123.85729 5.59543-7.60439 20.90916 18.3504-4.88164 7.97515z" fill="#000080" stroke-width=".264583"/><path d="m102.22742 114.21072 8.3902 6.91954 7.31751-5.05589-8.39707-7.36919z" fill="#ff0" stroke-width=".264583"/><path d="m102.22742 114.21072 2.55243-6.21306 7.76053-5.80763-3.00232 6.51515z" fill="#ff0" stroke-linejoin="round" stroke-width=".265"/><path d="m117.93513 116.07437 2.56497-6.38602-7.95972-7.49832-3.00232 6.51515z" fill="#ff0" stroke-width=".264583"/><path d="m114.74649 102.0382-2.26509 1.61669-.79782 2.40979 1.38638 4.06478 3.54742 3.03766 2.9782.069 3.10679-2.131-6.41197-10.04566z" fill="#ff0" stroke-width=".264583"/><path d="m121.94948 98.504808-.93669-.834113-4.64649-.635899-1.96183 4.073784 2.43198 6.40802 5.15798 4.48682 4.24375.0325 1.66306-4.34188z" fill="#ff0" stroke-width=".264583"/><path d="m124.20291 96.898869-7.21281 5.340831s-.2865 3.54513.70725 4.92228c.99376 1.37715 4.66671 2.3316 4.66671 2.3316l6.9816-4.96666z" fill="#ff0" stroke-width=".264583"/><ellipse cx="33.397964" cy="158.40076" rx="3.49806" ry="4.376344" stroke-linecap="round" stroke-width=".264999" transform="matrix(.77019038 -.63781406 .63781406 .77019038 0 0)"/></g><path d="m127.70959 99.576603 8.7908-36.454037" fill="none" marker-end="url(#c)" stroke="#f00" stroke-width=".264583"/><text stroke-width=".264583" x="122.72088" y="57.620586"><tspan stroke-width=".264583" x="122.72088" y="60.741844"/></text><text font-family="sans-serif" font-size="3.52778" letter-spacing="0" stroke-width=".264583" word-spacing="0" x="123.06767" y="61.268856"><tspan font-size="3.52778" stroke-width=".264583" x="123.06767" y="61.268856">Boresight (LFT)</tspan></text><text font-family="sans-serif" font-size="3.52777" letter-spacing="0" stroke-width=".264583" word-spacing="0" x="169.83786" y="64.700653"><tspan font-size="3.52777" stroke-width=".264583" x="169.83786" y="64.700653">Spin axis</tspan></text><text stroke-width=".264583" x="19.529694" y="121.97434"><tspan stroke-width=".264583" x="19.529694" y="131.33809"/></text><text font-family="sans-serif" font-size="3.52777" letter-spacing="0" stroke-width=".264583" word-spacing="0" x="58.811329" y="123.19209"><tspan font-size="3.52777" stroke-width=".264583" x="58.811329" y="123.19209">Sun-Earth axis</tspan></text><path d="m-118.71244 103.31047a7.0139666 7.4863358 0 0 1 -6.04047 5.85323" fill="none" stroke="#8f8f8f" stroke-width=".565" transform="matrix(-.24308227 -.97000568 .97000568 -.24308227 0 0)"/><path d="m-68.336723 137.95473a7.0139666 7.4863358 0 0 1 -6.040473 5.85322" fill="none" stroke="#8f8f8f" stroke-width=".565" transform="matrix(.42087837 -.90711708 .90711708 .42087837 0 0)"/><text font-family="sans-serif" font-size="3.52778" letter-spacing="0" stroke-width=".264583" word-spacing="0" x="133.9832" y="89.709549"><tspan font-size="3.52778" stroke-width=".264583" x="133.9832" y="89.709549">β</tspan></text><text font-family="sans-serif" font-size="3.52778" letter-spacing="0" stroke-width=".264583" word-spacing="0" x="100.98071" y="123.20042"><tspan font-size="3.52778" stroke-width=".264583" x="100.98071" y="123.20042">α</tspan></text><path d="m127.70959 99.576603 36.80761 2.089327" fill="none" marker-end="url(#a)" stroke="#4a0" stroke-width=".264583"/><text font-family="sans-serif" font-size="3.52778" letter-spacing="0" stroke-width=".264583" word-spacing="0" x="149.55432" y="106.21457"><tspan font-size="3.52778" stroke-width=".264583" x="149.55432" y="106.21457">Boresight (MHFT)</tspan></text></g></svg>