<svg height="184.57065mm" viewBox="0 0 180.45235 184.57065" width="180.45235mm" xmlns="http://www.w3.org/2000/svg" xmlns:xlink="http://www.w3.org/1999/xlink"><marker id="a" orient="auto" overflow="visible" refX="0" refY="0"><path d="m0 0 5-5-17.5 5 17.5 5z" fill-rule="evenodd" stroke="#000" stroke-width="1pt" transform="matrix(-.8 0 0 -.8 -10 0)"/></marker><marker id="b" orient="auto" overflow="visible" refX="0" refY="0"><path d="m0 0 5-5-17.5 5 17.5 5z" fill-rule="evenodd" stroke="#000" stroke-width="1pt" transform="matrix(-.8 0 0 -.8 -10 0)"/></marker><marker id="c" orient="auto" overflow="visible" refX="0" refY="0"><path d="m0 0 5-5-17.5 5 17.5 5z" fill-rule="evenodd" stroke="#000" stroke-width="1pt" transform="matrix(-.8 0 0 -.8 -10 0)"/></marker><marker id="d" orient="auto" overflow="visible" refX="0" refY="0"><path d="m0 0 5-5-17.5 5 17.5 5z" fill-rule="evenodd" stroke="#000" stroke-width="1pt" transform="matrix(-.4 0 0 -.4 -4 0)"/></marker><marker id="e" orient="auto" overflow="visible" refX="0" refY="0"><path d="m0 0 5-5-17.5 5 17.5 5z" fill-rule="evenodd" stroke="#000" stroke-width="1pt" transform="matrix(-.4 0 0 -.4 -4 0)"/></marker><g transform="translate(-15.437826 -48.566287)"><g stroke="#000"><circle cx="105.43783" cy="142.65186" fill="none" r="69.089172" stroke-width=".864306"/><path d="m398 800.22852c.1686.0183.33722.0358.50586.0527 70.01526-.0008 126.77359-116.9103 126.77344-261.125.00015-144.2147-56.75818-261.1242-126.77344-261.125-.16863.0117-.33725.024-.50586.0371" fill="none" stroke-width="3.266667" transform="scale(.26458333)"/><path d="m135.90655 114.05401c-.53454-.13364-12.02712-52.518465-12.02712-52.518465" fill="none" marker-end="url(#e)" stroke-width=".865"/><ellipse cx="135.7061" cy="113.31902" rx="2.071336" ry="2.07134" stroke-width=".865"/><path d="m15.437826 142.65186h180.000004" fill="none" marker-end="url(#b)" stroke-width=".5"/><path d="m105.43783 233.13693v-180.000007" fill="none" marker-end="url(#a)" stroke-width=".5"/><path d="m105.43475 142.68535 27.09752-26.25598" fill="none" marker-end="url(#d)" stroke-width="1.065"/></g><text font-family="sans-serif" font-size="10.583333" letter-spacing="0" stroke-width=".264583" word-spacing="0" x="120.95238" y="56.60714"><tspan stroke-width=".264583" x="120.95238" y="56.60714">North</tspan></text><text font-family="sans-serif" font-size="10.583333" letter-spacing="0" stroke-width=".264583" word-spacing="0" x="141.36308" y="115.19345"><tspan stroke-width=".264583" x="141.36308" y="115.19345">P</tspan></text><path d="m105.48436 142.65021-71.466502 46.66824" fill="none" marker-end="url(#c)" stroke="#000" stroke-width=".5"/><path d="m433.25 504.95703c-6.81832-15.43067-20.9039-24.36832-33.89062-24.37109-.36931.0118-.7385.032-1.10743.0605" fill="none" stroke="#000" stroke-width=".88063" transform="scale(.26458333)"/><text font-family="sans-serif" font-size="10.583333" letter-spacing="0" stroke-width=".264583" word-spacing="0" x="109.24914" y="127.09254"><tspan stroke-width=".264583" x="109.24914" y="127.09254">θ</tspan></text><text font-family="sans-serif" font-size="10.583333" letter-spacing="0" stroke-width=".264583" word-spacing="0" x="126.12294" y="130.98114"><tspan font-weight="bold" stroke-width=".264583" x="126.12294" y="130.98114">v</tspan></text></g></svg>