<svg height="41.065445mm" viewBox="0 0 153.55043 41.065445" width="153.55043mm" xmlns="http://www.w3.org/2000/svg" xmlns:xlink="http://www.w3.org/1999/xlink"><marker id="a" orient="auto" overflow="visible" refX="0" refY="0"><path d="m0 0 5-5-17.5 5 17.5 5z" fill-rule="evenodd" stroke="#000" stroke-width="1pt" transform="matrix(-.8 0 0 -.8 -10 0)"/></marker><marker id="b" orient="auto" overflow="visible" refX="0" refY="0"><path d="m0 0 5-5-17.5 5 17.5 5z" fill-rule="evenodd" stroke="#000" stroke-width="1pt" transform="matrix(-.8 0 0 -.8 -10 0)"/></marker><g transform="translate(-8.552625 -130.71783)"><g fill="none"><path d="m17.238884 138.52147v24.91058" stroke="#000" stroke-dasharray=".390882 .781765" stroke-width=".195441"/><path d="m8.5526247 141.58372h149.1363953" marker-end="url(#b)" stroke="#000" stroke-width=".265"/><path d="m8.5526247 160.02436h149.1363953" marker-end="url(#a)" stroke="#000" stroke-width=".265"/><path d="m17.238884 138.17604v6.81537" stroke="#000" stroke-linecap="round" stroke-width="1.165"/><path d="m47.640793 138.17604v6.81537" stroke="#000" stroke-linecap="round" stroke-width="1.165"/><path d="m78.042703 138.17604v6.81537" stroke="#000" stroke-linecap="round" stroke-width="1.165"/><path d="m108.44461 138.17604v6.81537" stroke="#000" stroke-linecap="round" stroke-width="1.165"/><path d="m17.238884 156.61668v6.81537" stroke="#999" stroke-linecap="round" stroke-width=".665"/><path d="m20.949476 156.61668v6.81537" stroke="#999" stroke-linecap="round" stroke-width=".665"/><path d="m24.660068 156.61668v6.81537" stroke="#999" stroke-linecap="round" stroke-width=".665"/><path d="m28.37066 156.61668v6.81537" stroke="#999" stroke-linecap="round" stroke-width=".665"/><path d="m32.08125 156.61668v6.81537" stroke="#999" stroke-linecap="round" stroke-width=".665"/><path d="m35.79184 156.61668v6.81537" stroke="#999" stroke-linecap="round" stroke-width=".665"/><path d="m39.502433 156.61668v6.81537" stroke="#999" stroke-linecap="round" stroke-width=".665"/><path d="m43.213028 156.61667v6.81537" stroke="#999" stroke-linecap="round" stroke-width=".665"/><path d="m46.923618 156.61668v6.81537" stroke="#999" stroke-linecap="round" stroke-width=".665"/><path d="m50.634206 156.61668v6.81537" stroke="#999" stroke-linecap="round" stroke-width=".665"/><path d="m54.344802 156.61668v6.81537" stroke="#999" stroke-linecap="round" stroke-width=".665"/><path d="m58.055395 156.61668v6.81537" stroke="#999" stroke-linecap="round" stroke-width=".665"/><path d="m61.765982 156.61668v6.81537" stroke="#999" stroke-linecap="round" stroke-width=".665"/><path d="m65.476573 156.61668v6.81537" stroke="#999" stroke-linecap="round" stroke-width=".665"/><path d="m69.187166 156.61668v6.81537" stroke="#999" stroke-linecap="round" stroke-width=".665"/><path d="m72.897761 156.61668v6.81537" stroke="#999" stroke-linecap="round" stroke-width=".665"/><path d="m76.608345 156.61668v6.81537" stroke="#999" stroke-linecap="round" stroke-width=".665"/><path d="m80.318943 156.61668v6.81537" stroke="#999" stroke-linecap="round" stroke-width=".665"/><path d="m84.029536 156.61668v6.81537" stroke="#999" stroke-linecap="round" stroke-width=".665"/><path d="m87.740133 156.61668v6.81537" stroke="#999" stroke-linecap="round" stroke-width=".665"/><path d="m91.450716 156.61668v6.81537" stroke="#999" stroke-linecap="round" stroke-width=".665"/><path d="m95.16131 156.61668v6.81537" stroke="#999" stroke-linecap="round" stroke-width=".665"/><path d="m98.871905 156.61668v6.81537" stroke="#999" stroke-linecap="round" stroke-width=".665"/><path d="m102.5825 156.61668v6.81537" stroke="#999" stroke-linecap="round" stroke-width=".665"/><path d="m106.29308 156.61667v6.81537" stroke="#999" stroke-linecap="round" stroke-width=".665"/><path d="m110.00367 156.61668v6.81537" stroke="#999" stroke-linecap="round" stroke-width=".665"/><path d="m113.71427 156.61668v6.81537" stroke="#999" stroke-linecap="round" stroke-width=".665"/><path d="m117.42486 156.61668v6.81537" stroke="#999" stroke-linecap="round" stroke-width=".665"/><path d="m121.13545 156.61668v6.81537" stroke="#999" stroke-linecap="round" stroke-width=".665"/><path d="m124.84605 156.61668v6.81537" stroke="#999" stroke-linecap="round" stroke-width=".665"/><path d="m128.55664 156.61668v6.81537" stroke="#999" stroke-linecap="round" stroke-width=".665"/><path d="m138.84652 138.17604v6.81537" stroke="#000" stroke-linecap="round" stroke-width="1.165"/><path d="m128.55664 141.57564v21.85641" stroke="#000" stroke-dasharray=".529167 1.058333" stroke-width=".264583"/></g><text font-family="sans-serif" font-size="10.583333" letter-spacing="0" stroke-width=".264583" word-spacing="0" x="18.331846" y="170.75595"><tspan font-size="4.938889" stroke-width=".264583" x="18.331846" y="170.75595">Samples acquired by the detector</tspan></text><text font-family="sans-serif" font-size="10.583333" letter-spacing="0" stroke-width=".264583" word-spacing="0" x="18.142859" y="134.47023"><tspan font-size="4.938889" stroke-width=".264583" x="18.142859" y="134.47023">Quaternions representing the spacecraft's orientation</tspan></text><text stroke-width=".264583" x="144.95386" y="150.9122"><tspan stroke-width=".264583" x="144.95386" y="160.27597"/></text><text font-family="sans-serif" font-size="10.583333" letter-spacing="0" stroke-width=".264583" word-spacing="0" x="148.69167" y="152.64528"><tspan font-size="4.938889" stroke-width=".264583" x="148.69167" y="152.64528">Time</tspan></text></g></svg>