<svg height="100.82707mm" viewBox="0 0 115.09096 100.82707" width="115.09097mm" xmlns="http://www.w3.org/2000/svg" xmlns:xlink="http://www.w3.org/1999/xlink"><marker id="a" orient="auto" overflow="visible" refX="0" refY="0"><path d="m0 0 5-5-17.5 5 17.5 5z" fill-rule="evenodd" stroke="#000" stroke-width="1pt" transform="matrix(.4 0 0 .4 4 0)"/></marker><marker id="b" orient="auto" overflow="visible" refX="0" refY="0"><path d="m0 0 5-5-17.5 5 17.5 5z" fill-rule="evenodd" stroke="#000" stroke-width="1pt" transform="matrix(-.4 0 0 -.4 -4 0)"/></marker><marker id="c" orient="auto" overflow="visible" refX="0" refY="0"><path d="m0 0 5-5-17.5 5 17.5 5z" fill-rule="evenodd" stroke="#000" stroke-width="1pt" transform="matrix(-.4 0 0 -.4 -4 0)"/></marker><marker id="d" orient="auto" overflow="visible" refX="0" refY="0"><path d="m0 0 5-5-17.5 5 17.5 5z" fill="#8f8f8f" fill-rule="evenodd" stroke="#8f8f8f" stroke-width="1pt" transform="matrix(-.4 0 0 -.4 -4 0)"/></marker><marker id="e" orient="auto" overflow="visible" refX="0" refY="0"><path d="m0 0 5-5-17.5 5 17.5 5z" fill="#8f8f8f" fill-rule="evenodd" stroke="#8f8f8f" stroke-width="1pt" transform="matrix(-.4 0 0 -.4 -4 0)"/></marker><marker id="f" orient="auto" overflow="visible" refX="0" refY="0"><path d="m0 0 5-5-17.5 5 17.5 5z" fill="#8f8f8f" fill-rule="evenodd" stroke="#8f8f8f" stroke-width="1pt" transform="matrix(-.4 0 0 -.4 -4 0)"/></marker><g transform="translate(-51.898641 -92.396764)"><g fill="none"><path d="m137.25383 167.97465c.86117 4.89294 3.45907 8.23639 6.40357 8.24123 3.70205-.00017 6.70305-5.21546 6.70283-11.64854-.00016-6.43261-3.00105-11.64716-6.70283-11.64732-2.8455.007-5.37856 3.13408-6.31824 7.80133" marker-end="url(#e)" stroke="#8f8f8f" stroke-width=".616327"/><path d="m98.084821 96.105653v68.791667l-43.653945 25.20362" marker-end="url(#b)" marker-start="url(#a)" stroke="#000" stroke-width="1.4"/><path d="m98.084819 164.89732h66.145831" marker-end="url(#c)" stroke="#000" stroke-width="1.4"/></g><text font-family="sans-serif" font-size="10.583333" letter-spacing="0" stroke-width=".264583" word-spacing="0" x="51.59375" y="183.60713"><tspan stroke-width=".264583" x="51.59375" y="183.60713">x</tspan></text><text font-family="sans-serif" font-size="10.583333" letter-spacing="0" stroke-width=".264583" word-spacing="0" x="158.939" y="157.90477"><tspan stroke-width=".264583" x="158.939" y="157.90477">y</tspan></text><text font-family="sans-serif" font-size="10.583333" letter-spacing="0" stroke-width=".264583" word-spacing="0" x="102.62054" y="98.184525"><tspan stroke-width=".264583" x="102.62054" y="98.184525">z</tspan></text><path d="m67.379835 184.67444c.861169 4.89294 3.459069 8.23639 6.403568 8.24123 3.702055-.00017 6.703059-5.21546 6.702835-11.64854-.000158-6.43261-3.001049-11.64716-6.702835-11.64732-2.8455.007-5.37856 3.13408-6.318236 7.80133" fill="none" marker-end="url(#d)" stroke="#8f8f8f" stroke-width=".616327"/><path d="m94.68122 111.65951c-4.89294.86117-8.23639 3.45907-8.24123 6.40357.00017 3.70206 5.21546 6.70306 11.64854 6.70284 6.43261-.00016 11.64716-3.00105 11.64732-6.70284-.007-2.8455-3.13408-5.37856-7.80133-6.31824" fill="none" marker-end="url(#f)" stroke="#8f8f8f" stroke-width=".616327"/></g></svg>